<?xml version="1.0" standalone="no"?><!DOCTYPE svg PUBLIC "-//W3C//DTD SVG 1.1//EN" "http://www.w3.org/Graphics/SVG/1.1/DTD/svg11.dtd">
<svg x="0.0000mm" y="0.0000mm" width="51.8580mm" height="51.8580mm" viewBox="0.0000 0.0000 51.8580 51.8580" version="1.1" xmlns="http://www.w3.org/2000/svg" shape-rendering="crispEdges">
<title>TBarCode - 11.8.0.15854</title>
<desc>BarCode licensed to MEM:TEC-IT Datenverarbeitung GmbH Internal License</desc>
<g fill="rgb(0%,0%,0%)">
</g>
<g fill="rgb(100%,100%,100%)">
<rect x="0.0000" y="0.0000" width="51.8580" height="51.8580" />
</g>
<g fill="rgb(0%,0%,0%)">
</g>
<g fill="rgb(0%,0%,0%)">
<rect x="0.0000" y="0.0000" width="1.0583" height="1.0583" />
<rect x="1.0583" y="0.0000" width="1.0583" height="1.0583" />
<rect x="2.1167" y="0.0000" width="1.0583" height="1.0583" />
<rect x="3.1750" y="0.0000" width="1.0583" height="1.0583" />
<rect x="4.2333" y="0.0000" width="1.0583" height="1.0583" />
<rect x="5.2916" y="0.0000" width="1.0583" height="1.0583" />
<rect x="6.3500" y="0.0000" width="1.0583" height="1.0583" />
<rect x="8.4666" y="0.0000" width="1.0583" height="1.0583" />
<rect x="10.5833" y="0.0000" width="1.0583" height="1.0583" />
<rect x="11.6416" y="0.0000" width="1.0583" height="1.0583" />
<rect x="15.8749" y="0.0000" width="1.0583" height="1.0583" />
<rect x="16.9332" y="0.0000" width="1.0583" height="1.0583" />
<rect x="17.9916" y="0.0000" width="1.0583" height="1.0583" />
<rect x="19.0499" y="0.0000" width="1.0583" height="1.0583" />
<rect x="20.1082" y="0.0000" width="1.0583" height="1.0583" />
<rect x="22.2249" y="0.0000" width="1.0583" height="1.0583" />
<rect x="23.2832" y="0.0000" width="1.0583" height="1.0583" />
<rect x="27.5165" y="0.0000" width="1.0583" height="1.0583" />
<rect x="29.6331" y="0.0000" width="1.0583" height="1.0583" />
<rect x="30.6915" y="0.0000" width="1.0583" height="1.0583" />
<rect x="33.8664" y="0.0000" width="1.0583" height="1.0583" />
<rect x="38.0998" y="0.0000" width="1.0583" height="1.0583" />
<rect x="42.3331" y="0.0000" width="1.0583" height="1.0583" />
<rect x="44.4497" y="0.0000" width="1.0583" height="1.0583" />
<rect x="45.5080" y="0.0000" width="1.0583" height="1.0583" />
<rect x="46.5664" y="0.0000" width="1.0583" height="1.0583" />
<rect x="47.6247" y="0.0000" width="1.0583" height="1.0583" />
<rect x="48.6830" y="0.0000" width="1.0583" height="1.0583" />
<rect x="49.7413" y="0.0000" width="1.0583" height="1.0583" />
<rect x="50.7997" y="0.0000" width="1.0583" height="1.0583" />
</g>
<g fill="rgb(0%,0%,0%)">
<rect x="0.0000" y="1.0583" width="1.0583" height="1.0583" />
<rect x="6.3500" y="1.0583" width="1.0583" height="1.0583" />
<rect x="9.5249" y="1.0583" width="1.0583" height="1.0583" />
<rect x="11.6416" y="1.0583" width="1.0583" height="1.0583" />
<rect x="12.6999" y="1.0583" width="1.0583" height="1.0583" />
<rect x="13.7582" y="1.0583" width="1.0583" height="1.0583" />
<rect x="19.0499" y="1.0583" width="1.0583" height="1.0583" />
<rect x="20.1082" y="1.0583" width="1.0583" height="1.0583" />
<rect x="22.2249" y="1.0583" width="1.0583" height="1.0583" />
<rect x="23.2832" y="1.0583" width="1.0583" height="1.0583" />
<rect x="34.9248" y="1.0583" width="1.0583" height="1.0583" />
<rect x="37.0414" y="1.0583" width="1.0583" height="1.0583" />
<rect x="38.0998" y="1.0583" width="1.0583" height="1.0583" />
<rect x="40.2164" y="1.0583" width="1.0583" height="1.0583" />
<rect x="41.2747" y="1.0583" width="1.0583" height="1.0583" />
<rect x="42.3331" y="1.0583" width="1.0583" height="1.0583" />
<rect x="44.4497" y="1.0583" width="1.0583" height="1.0583" />
<rect x="50.7997" y="1.0583" width="1.0583" height="1.0583" />
</g>
<g fill="rgb(0%,0%,0%)">
<rect x="0.0000" y="2.1167" width="1.0583" height="1.0583" />
<rect x="2.1167" y="2.1167" width="1.0583" height="1.0583" />
<rect x="3.1750" y="2.1167" width="1.0583" height="1.0583" />
<rect x="4.2333" y="2.1167" width="1.0583" height="1.0583" />
<rect x="6.3500" y="2.1167" width="1.0583" height="1.0583" />
<rect x="8.4666" y="2.1167" width="1.0583" height="1.0583" />
<rect x="10.5833" y="2.1167" width="1.0583" height="1.0583" />
<rect x="11.6416" y="2.1167" width="1.0583" height="1.0583" />
<rect x="13.7582" y="2.1167" width="1.0583" height="1.0583" />
<rect x="14.8166" y="2.1167" width="1.0583" height="1.0583" />
<rect x="16.9332" y="2.1167" width="1.0583" height="1.0583" />
<rect x="19.0499" y="2.1167" width="1.0583" height="1.0583" />
<rect x="23.2832" y="2.1167" width="1.0583" height="1.0583" />
<rect x="31.7498" y="2.1167" width="1.0583" height="1.0583" />
<rect x="34.9248" y="2.1167" width="1.0583" height="1.0583" />
<rect x="35.9831" y="2.1167" width="1.0583" height="1.0583" />
<rect x="37.0414" y="2.1167" width="1.0583" height="1.0583" />
<rect x="39.1581" y="2.1167" width="1.0583" height="1.0583" />
<rect x="41.2747" y="2.1167" width="1.0583" height="1.0583" />
<rect x="42.3331" y="2.1167" width="1.0583" height="1.0583" />
<rect x="44.4497" y="2.1167" width="1.0583" height="1.0583" />
<rect x="46.5664" y="2.1167" width="1.0583" height="1.0583" />
<rect x="47.6247" y="2.1167" width="1.0583" height="1.0583" />
<rect x="48.6830" y="2.1167" width="1.0583" height="1.0583" />
<rect x="50.7997" y="2.1167" width="1.0583" height="1.0583" />
</g>
<g fill="rgb(0%,0%,0%)">
<rect x="0.0000" y="3.1750" width="1.0583" height="1.0583" />
<rect x="2.1167" y="3.1750" width="1.0583" height="1.0583" />
<rect x="3.1750" y="3.1750" width="1.0583" height="1.0583" />
<rect x="4.2333" y="3.1750" width="1.0583" height="1.0583" />
<rect x="6.3500" y="3.1750" width="1.0583" height="1.0583" />
<rect x="8.4666" y="3.1750" width="1.0583" height="1.0583" />
<rect x="9.5249" y="3.1750" width="1.0583" height="1.0583" />
<rect x="11.6416" y="3.1750" width="1.0583" height="1.0583" />
<rect x="13.7582" y="3.1750" width="1.0583" height="1.0583" />
<rect x="14.8166" y="3.1750" width="1.0583" height="1.0583" />
<rect x="17.9916" y="3.1750" width="1.0583" height="1.0583" />
<rect x="20.1082" y="3.1750" width="1.0583" height="1.0583" />
<rect x="24.3415" y="3.1750" width="1.0583" height="1.0583" />
<rect x="28.5748" y="3.1750" width="1.0583" height="1.0583" />
<rect x="29.6331" y="3.1750" width="1.0583" height="1.0583" />
<rect x="30.6915" y="3.1750" width="1.0583" height="1.0583" />
<rect x="31.7498" y="3.1750" width="1.0583" height="1.0583" />
<rect x="32.8081" y="3.1750" width="1.0583" height="1.0583" />
<rect x="33.8664" y="3.1750" width="1.0583" height="1.0583" />
<rect x="39.1581" y="3.1750" width="1.0583" height="1.0583" />
<rect x="41.2747" y="3.1750" width="1.0583" height="1.0583" />
<rect x="44.4497" y="3.1750" width="1.0583" height="1.0583" />
<rect x="46.5664" y="3.1750" width="1.0583" height="1.0583" />
<rect x="47.6247" y="3.1750" width="1.0583" height="1.0583" />
<rect x="48.6830" y="3.1750" width="1.0583" height="1.0583" />
<rect x="50.7997" y="3.1750" width="1.0583" height="1.0583" />
</g>
<g fill="rgb(0%,0%,0%)">
<rect x="0.0000" y="4.2333" width="1.0583" height="1.0583" />
<rect x="2.1167" y="4.2333" width="1.0583" height="1.0583" />
<rect x="3.1750" y="4.2333" width="1.0583" height="1.0583" />
<rect x="4.2333" y="4.2333" width="1.0583" height="1.0583" />
<rect x="6.3500" y="4.2333" width="1.0583" height="1.0583" />
<rect x="8.4666" y="4.2333" width="1.0583" height="1.0583" />
<rect x="11.6416" y="4.2333" width="1.0583" height="1.0583" />
<rect x="12.6999" y="4.2333" width="1.0583" height="1.0583" />
<rect x="14.8166" y="4.2333" width="1.0583" height="1.0583" />
<rect x="17.9916" y="4.2333" width="1.0583" height="1.0583" />
<rect x="21.1665" y="4.2333" width="1.0583" height="1.0583" />
<rect x="23.2832" y="4.2333" width="1.0583" height="1.0583" />
<rect x="24.3415" y="4.2333" width="1.0583" height="1.0583" />
<rect x="25.3998" y="4.2333" width="1.0583" height="1.0583" />
<rect x="26.4582" y="4.2333" width="1.0583" height="1.0583" />
<rect x="27.5165" y="4.2333" width="1.0583" height="1.0583" />
<rect x="30.6915" y="4.2333" width="1.0583" height="1.0583" />
<rect x="31.7498" y="4.2333" width="1.0583" height="1.0583" />
<rect x="37.0414" y="4.2333" width="1.0583" height="1.0583" />
<rect x="38.0998" y="4.2333" width="1.0583" height="1.0583" />
<rect x="44.4497" y="4.2333" width="1.0583" height="1.0583" />
<rect x="46.5664" y="4.2333" width="1.0583" height="1.0583" />
<rect x="47.6247" y="4.2333" width="1.0583" height="1.0583" />
<rect x="48.6830" y="4.2333" width="1.0583" height="1.0583" />
<rect x="50.7997" y="4.2333" width="1.0583" height="1.0583" />
</g>
<g fill="rgb(0%,0%,0%)">
<rect x="0.0000" y="5.2916" width="1.0583" height="1.0583" />
<rect x="6.3500" y="5.2916" width="1.0583" height="1.0583" />
<rect x="9.5249" y="5.2916" width="1.0583" height="1.0583" />
<rect x="10.5833" y="5.2916" width="1.0583" height="1.0583" />
<rect x="11.6416" y="5.2916" width="1.0583" height="1.0583" />
<rect x="12.6999" y="5.2916" width="1.0583" height="1.0583" />
<rect x="13.7582" y="5.2916" width="1.0583" height="1.0583" />
<rect x="15.8749" y="5.2916" width="1.0583" height="1.0583" />
<rect x="16.9332" y="5.2916" width="1.0583" height="1.0583" />
<rect x="23.2832" y="5.2916" width="1.0583" height="1.0583" />
<rect x="27.5165" y="5.2916" width="1.0583" height="1.0583" />
<rect x="29.6331" y="5.2916" width="1.0583" height="1.0583" />
<rect x="30.6915" y="5.2916" width="1.0583" height="1.0583" />
<rect x="31.7498" y="5.2916" width="1.0583" height="1.0583" />
<rect x="32.8081" y="5.2916" width="1.0583" height="1.0583" />
<rect x="34.9248" y="5.2916" width="1.0583" height="1.0583" />
<rect x="35.9831" y="5.2916" width="1.0583" height="1.0583" />
<rect x="39.1581" y="5.2916" width="1.0583" height="1.0583" />
<rect x="40.2164" y="5.2916" width="1.0583" height="1.0583" />
<rect x="44.4497" y="5.2916" width="1.0583" height="1.0583" />
<rect x="50.7997" y="5.2916" width="1.0583" height="1.0583" />
</g>
<g fill="rgb(0%,0%,0%)">
<rect x="0.0000" y="6.3500" width="1.0583" height="1.0583" />
<rect x="1.0583" y="6.3500" width="1.0583" height="1.0583" />
<rect x="2.1167" y="6.3500" width="1.0583" height="1.0583" />
<rect x="3.1750" y="6.3500" width="1.0583" height="1.0583" />
<rect x="4.2333" y="6.3500" width="1.0583" height="1.0583" />
<rect x="5.2916" y="6.3500" width="1.0583" height="1.0583" />
<rect x="6.3500" y="6.3500" width="1.0583" height="1.0583" />
<rect x="8.4666" y="6.3500" width="1.0583" height="1.0583" />
<rect x="10.5833" y="6.3500" width="1.0583" height="1.0583" />
<rect x="12.6999" y="6.3500" width="1.0583" height="1.0583" />
<rect x="14.8166" y="6.3500" width="1.0583" height="1.0583" />
<rect x="16.9332" y="6.3500" width="1.0583" height="1.0583" />
<rect x="19.0499" y="6.3500" width="1.0583" height="1.0583" />
<rect x="21.1665" y="6.3500" width="1.0583" height="1.0583" />
<rect x="23.2832" y="6.3500" width="1.0583" height="1.0583" />
<rect x="25.3998" y="6.3500" width="1.0583" height="1.0583" />
<rect x="27.5165" y="6.3500" width="1.0583" height="1.0583" />
<rect x="29.6331" y="6.3500" width="1.0583" height="1.0583" />
<rect x="31.7498" y="6.3500" width="1.0583" height="1.0583" />
<rect x="33.8664" y="6.3500" width="1.0583" height="1.0583" />
<rect x="35.9831" y="6.3500" width="1.0583" height="1.0583" />
<rect x="38.0998" y="6.3500" width="1.0583" height="1.0583" />
<rect x="40.2164" y="6.3500" width="1.0583" height="1.0583" />
<rect x="42.3331" y="6.3500" width="1.0583" height="1.0583" />
<rect x="44.4497" y="6.3500" width="1.0583" height="1.0583" />
<rect x="45.5080" y="6.3500" width="1.0583" height="1.0583" />
<rect x="46.5664" y="6.3500" width="1.0583" height="1.0583" />
<rect x="47.6247" y="6.3500" width="1.0583" height="1.0583" />
<rect x="48.6830" y="6.3500" width="1.0583" height="1.0583" />
<rect x="49.7413" y="6.3500" width="1.0583" height="1.0583" />
<rect x="50.7997" y="6.3500" width="1.0583" height="1.0583" />
</g>
<g fill="rgb(0%,0%,0%)">
<rect x="12.6999" y="7.4083" width="1.0583" height="1.0583" />
<rect x="13.7582" y="7.4083" width="1.0583" height="1.0583" />
<rect x="14.8166" y="7.4083" width="1.0583" height="1.0583" />
<rect x="17.9916" y="7.4083" width="1.0583" height="1.0583" />
<rect x="19.0499" y="7.4083" width="1.0583" height="1.0583" />
<rect x="21.1665" y="7.4083" width="1.0583" height="1.0583" />
<rect x="23.2832" y="7.4083" width="1.0583" height="1.0583" />
<rect x="27.5165" y="7.4083" width="1.0583" height="1.0583" />
<rect x="28.5748" y="7.4083" width="1.0583" height="1.0583" />
<rect x="30.6915" y="7.4083" width="1.0583" height="1.0583" />
<rect x="31.7498" y="7.4083" width="1.0583" height="1.0583" />
<rect x="32.8081" y="7.4083" width="1.0583" height="1.0583" />
<rect x="33.8664" y="7.4083" width="1.0583" height="1.0583" />
<rect x="35.9831" y="7.4083" width="1.0583" height="1.0583" />
<rect x="40.2164" y="7.4083" width="1.0583" height="1.0583" />
<rect x="42.3331" y="7.4083" width="1.0583" height="1.0583" />
</g>
<g fill="rgb(0%,0%,0%)">
<rect x="0.0000" y="8.4666" width="1.0583" height="1.0583" />
<rect x="1.0583" y="8.4666" width="1.0583" height="1.0583" />
<rect x="2.1167" y="8.4666" width="1.0583" height="1.0583" />
<rect x="3.1750" y="8.4666" width="1.0583" height="1.0583" />
<rect x="6.3500" y="8.4666" width="1.0583" height="1.0583" />
<rect x="8.4666" y="8.4666" width="1.0583" height="1.0583" />
<rect x="9.5249" y="8.4666" width="1.0583" height="1.0583" />
<rect x="10.5833" y="8.4666" width="1.0583" height="1.0583" />
<rect x="12.6999" y="8.4666" width="1.0583" height="1.0583" />
<rect x="13.7582" y="8.4666" width="1.0583" height="1.0583" />
<rect x="17.9916" y="8.4666" width="1.0583" height="1.0583" />
<rect x="19.0499" y="8.4666" width="1.0583" height="1.0583" />
<rect x="21.1665" y="8.4666" width="1.0583" height="1.0583" />
<rect x="22.2249" y="8.4666" width="1.0583" height="1.0583" />
<rect x="23.2832" y="8.4666" width="1.0583" height="1.0583" />
<rect x="24.3415" y="8.4666" width="1.0583" height="1.0583" />
<rect x="25.3998" y="8.4666" width="1.0583" height="1.0583" />
<rect x="26.4582" y="8.4666" width="1.0583" height="1.0583" />
<rect x="27.5165" y="8.4666" width="1.0583" height="1.0583" />
<rect x="28.5748" y="8.4666" width="1.0583" height="1.0583" />
<rect x="29.6331" y="8.4666" width="1.0583" height="1.0583" />
<rect x="33.8664" y="8.4666" width="1.0583" height="1.0583" />
<rect x="34.9248" y="8.4666" width="1.0583" height="1.0583" />
<rect x="37.0414" y="8.4666" width="1.0583" height="1.0583" />
<rect x="38.0998" y="8.4666" width="1.0583" height="1.0583" />
<rect x="40.2164" y="8.4666" width="1.0583" height="1.0583" />
<rect x="41.2747" y="8.4666" width="1.0583" height="1.0583" />
<rect x="42.3331" y="8.4666" width="1.0583" height="1.0583" />
<rect x="43.3914" y="8.4666" width="1.0583" height="1.0583" />
<rect x="46.5664" y="8.4666" width="1.0583" height="1.0583" />
<rect x="47.6247" y="8.4666" width="1.0583" height="1.0583" />
<rect x="48.6830" y="8.4666" width="1.0583" height="1.0583" />
<rect x="50.7997" y="8.4666" width="1.0583" height="1.0583" />
</g>
<g fill="rgb(0%,0%,0%)">
<rect x="0.0000" y="9.5249" width="1.0583" height="1.0583" />
<rect x="1.0583" y="9.5249" width="1.0583" height="1.0583" />
<rect x="2.1167" y="9.5249" width="1.0583" height="1.0583" />
<rect x="3.1750" y="9.5249" width="1.0583" height="1.0583" />
<rect x="5.2916" y="9.5249" width="1.0583" height="1.0583" />
<rect x="8.4666" y="9.5249" width="1.0583" height="1.0583" />
<rect x="12.6999" y="9.5249" width="1.0583" height="1.0583" />
<rect x="20.1082" y="9.5249" width="1.0583" height="1.0583" />
<rect x="26.4582" y="9.5249" width="1.0583" height="1.0583" />
<rect x="29.6331" y="9.5249" width="1.0583" height="1.0583" />
<rect x="30.6915" y="9.5249" width="1.0583" height="1.0583" />
<rect x="31.7498" y="9.5249" width="1.0583" height="1.0583" />
<rect x="34.9248" y="9.5249" width="1.0583" height="1.0583" />
<rect x="35.9831" y="9.5249" width="1.0583" height="1.0583" />
<rect x="38.0998" y="9.5249" width="1.0583" height="1.0583" />
<rect x="41.2747" y="9.5249" width="1.0583" height="1.0583" />
<rect x="42.3331" y="9.5249" width="1.0583" height="1.0583" />
<rect x="43.3914" y="9.5249" width="1.0583" height="1.0583" />
<rect x="45.5080" y="9.5249" width="1.0583" height="1.0583" />
<rect x="46.5664" y="9.5249" width="1.0583" height="1.0583" />
<rect x="48.6830" y="9.5249" width="1.0583" height="1.0583" />
<rect x="49.7413" y="9.5249" width="1.0583" height="1.0583" />
<rect x="50.7997" y="9.5249" width="1.0583" height="1.0583" />
</g>
<g fill="rgb(0%,0%,0%)">
<rect x="1.0583" y="10.5833" width="1.0583" height="1.0583" />
<rect x="4.2333" y="10.5833" width="1.0583" height="1.0583" />
<rect x="6.3500" y="10.5833" width="1.0583" height="1.0583" />
<rect x="8.4666" y="10.5833" width="1.0583" height="1.0583" />
<rect x="9.5249" y="10.5833" width="1.0583" height="1.0583" />
<rect x="11.6416" y="10.5833" width="1.0583" height="1.0583" />
<rect x="14.8166" y="10.5833" width="1.0583" height="1.0583" />
<rect x="15.8749" y="10.5833" width="1.0583" height="1.0583" />
<rect x="17.9916" y="10.5833" width="1.0583" height="1.0583" />
<rect x="20.1082" y="10.5833" width="1.0583" height="1.0583" />
<rect x="23.2832" y="10.5833" width="1.0583" height="1.0583" />
<rect x="25.3998" y="10.5833" width="1.0583" height="1.0583" />
<rect x="26.4582" y="10.5833" width="1.0583" height="1.0583" />
<rect x="27.5165" y="10.5833" width="1.0583" height="1.0583" />
<rect x="32.8081" y="10.5833" width="1.0583" height="1.0583" />
<rect x="34.9248" y="10.5833" width="1.0583" height="1.0583" />
<rect x="38.0998" y="10.5833" width="1.0583" height="1.0583" />
<rect x="40.2164" y="10.5833" width="1.0583" height="1.0583" />
<rect x="47.6247" y="10.5833" width="1.0583" height="1.0583" />
<rect x="49.7413" y="10.5833" width="1.0583" height="1.0583" />
<rect x="50.7997" y="10.5833" width="1.0583" height="1.0583" />
</g>
<g fill="rgb(0%,0%,0%)">
<rect x="1.0583" y="11.6416" width="1.0583" height="1.0583" />
<rect x="2.1167" y="11.6416" width="1.0583" height="1.0583" />
<rect x="5.2916" y="11.6416" width="1.0583" height="1.0583" />
<rect x="8.4666" y="11.6416" width="1.0583" height="1.0583" />
<rect x="9.5249" y="11.6416" width="1.0583" height="1.0583" />
<rect x="12.6999" y="11.6416" width="1.0583" height="1.0583" />
<rect x="17.9916" y="11.6416" width="1.0583" height="1.0583" />
<rect x="22.2249" y="11.6416" width="1.0583" height="1.0583" />
<rect x="23.2832" y="11.6416" width="1.0583" height="1.0583" />
<rect x="25.3998" y="11.6416" width="1.0583" height="1.0583" />
<rect x="27.5165" y="11.6416" width="1.0583" height="1.0583" />
<rect x="28.5748" y="11.6416" width="1.0583" height="1.0583" />
<rect x="29.6331" y="11.6416" width="1.0583" height="1.0583" />
<rect x="32.8081" y="11.6416" width="1.0583" height="1.0583" />
<rect x="33.8664" y="11.6416" width="1.0583" height="1.0583" />
<rect x="35.9831" y="11.6416" width="1.0583" height="1.0583" />
<rect x="39.1581" y="11.6416" width="1.0583" height="1.0583" />
<rect x="40.2164" y="11.6416" width="1.0583" height="1.0583" />
<rect x="41.2747" y="11.6416" width="1.0583" height="1.0583" />
<rect x="42.3331" y="11.6416" width="1.0583" height="1.0583" />
<rect x="43.3914" y="11.6416" width="1.0583" height="1.0583" />
<rect x="44.4497" y="11.6416" width="1.0583" height="1.0583" />
<rect x="45.5080" y="11.6416" width="1.0583" height="1.0583" />
<rect x="47.6247" y="11.6416" width="1.0583" height="1.0583" />
<rect x="50.7997" y="11.6416" width="1.0583" height="1.0583" />
</g>
<g fill="rgb(0%,0%,0%)">
<rect x="4.2333" y="12.6999" width="1.0583" height="1.0583" />
<rect x="5.2916" y="12.6999" width="1.0583" height="1.0583" />
<rect x="6.3500" y="12.6999" width="1.0583" height="1.0583" />
<rect x="8.4666" y="12.6999" width="1.0583" height="1.0583" />
<rect x="15.8749" y="12.6999" width="1.0583" height="1.0583" />
<rect x="19.0499" y="12.6999" width="1.0583" height="1.0583" />
<rect x="24.3415" y="12.6999" width="1.0583" height="1.0583" />
<rect x="25.3998" y="12.6999" width="1.0583" height="1.0583" />
<rect x="26.4582" y="12.6999" width="1.0583" height="1.0583" />
<rect x="29.6331" y="12.6999" width="1.0583" height="1.0583" />
<rect x="32.8081" y="12.6999" width="1.0583" height="1.0583" />
<rect x="37.0414" y="12.6999" width="1.0583" height="1.0583" />
<rect x="38.0998" y="12.6999" width="1.0583" height="1.0583" />
<rect x="46.5664" y="12.6999" width="1.0583" height="1.0583" />
<rect x="47.6247" y="12.6999" width="1.0583" height="1.0583" />
<rect x="48.6830" y="12.6999" width="1.0583" height="1.0583" />
<rect x="49.7413" y="12.6999" width="1.0583" height="1.0583" />
</g>
<g fill="rgb(0%,0%,0%)">
<rect x="1.0583" y="13.7582" width="1.0583" height="1.0583" />
<rect x="2.1167" y="13.7582" width="1.0583" height="1.0583" />
<rect x="3.1750" y="13.7582" width="1.0583" height="1.0583" />
<rect x="8.4666" y="13.7582" width="1.0583" height="1.0583" />
<rect x="13.7582" y="13.7582" width="1.0583" height="1.0583" />
<rect x="14.8166" y="13.7582" width="1.0583" height="1.0583" />
<rect x="15.8749" y="13.7582" width="1.0583" height="1.0583" />
<rect x="16.9332" y="13.7582" width="1.0583" height="1.0583" />
<rect x="20.1082" y="13.7582" width="1.0583" height="1.0583" />
<rect x="22.2249" y="13.7582" width="1.0583" height="1.0583" />
<rect x="23.2832" y="13.7582" width="1.0583" height="1.0583" />
<rect x="25.3998" y="13.7582" width="1.0583" height="1.0583" />
<rect x="26.4582" y="13.7582" width="1.0583" height="1.0583" />
<rect x="27.5165" y="13.7582" width="1.0583" height="1.0583" />
<rect x="30.6915" y="13.7582" width="1.0583" height="1.0583" />
<rect x="31.7498" y="13.7582" width="1.0583" height="1.0583" />
<rect x="32.8081" y="13.7582" width="1.0583" height="1.0583" />
<rect x="33.8664" y="13.7582" width="1.0583" height="1.0583" />
<rect x="34.9248" y="13.7582" width="1.0583" height="1.0583" />
<rect x="38.0998" y="13.7582" width="1.0583" height="1.0583" />
<rect x="40.2164" y="13.7582" width="1.0583" height="1.0583" />
<rect x="41.2747" y="13.7582" width="1.0583" height="1.0583" />
<rect x="43.3914" y="13.7582" width="1.0583" height="1.0583" />
<rect x="44.4497" y="13.7582" width="1.0583" height="1.0583" />
<rect x="45.5080" y="13.7582" width="1.0583" height="1.0583" />
<rect x="47.6247" y="13.7582" width="1.0583" height="1.0583" />
<rect x="49.7413" y="13.7582" width="1.0583" height="1.0583" />
</g>
<g fill="rgb(0%,0%,0%)">
<rect x="1.0583" y="14.8166" width="1.0583" height="1.0583" />
<rect x="2.1167" y="14.8166" width="1.0583" height="1.0583" />
<rect x="4.2333" y="14.8166" width="1.0583" height="1.0583" />
<rect x="5.2916" y="14.8166" width="1.0583" height="1.0583" />
<rect x="6.3500" y="14.8166" width="1.0583" height="1.0583" />
<rect x="8.4666" y="14.8166" width="1.0583" height="1.0583" />
<rect x="9.5249" y="14.8166" width="1.0583" height="1.0583" />
<rect x="12.6999" y="14.8166" width="1.0583" height="1.0583" />
<rect x="17.9916" y="14.8166" width="1.0583" height="1.0583" />
<rect x="20.1082" y="14.8166" width="1.0583" height="1.0583" />
<rect x="21.1665" y="14.8166" width="1.0583" height="1.0583" />
<rect x="24.3415" y="14.8166" width="1.0583" height="1.0583" />
<rect x="27.5165" y="14.8166" width="1.0583" height="1.0583" />
<rect x="29.6331" y="14.8166" width="1.0583" height="1.0583" />
<rect x="31.7498" y="14.8166" width="1.0583" height="1.0583" />
<rect x="33.8664" y="14.8166" width="1.0583" height="1.0583" />
<rect x="34.9248" y="14.8166" width="1.0583" height="1.0583" />
<rect x="35.9831" y="14.8166" width="1.0583" height="1.0583" />
<rect x="43.3914" y="14.8166" width="1.0583" height="1.0583" />
<rect x="45.5080" y="14.8166" width="1.0583" height="1.0583" />
<rect x="47.6247" y="14.8166" width="1.0583" height="1.0583" />
<rect x="48.6830" y="14.8166" width="1.0583" height="1.0583" />
</g>
<g fill="rgb(0%,0%,0%)">
<rect x="0.0000" y="15.8749" width="1.0583" height="1.0583" />
<rect x="3.1750" y="15.8749" width="1.0583" height="1.0583" />
<rect x="9.5249" y="15.8749" width="1.0583" height="1.0583" />
<rect x="10.5833" y="15.8749" width="1.0583" height="1.0583" />
<rect x="11.6416" y="15.8749" width="1.0583" height="1.0583" />
<rect x="14.8166" y="15.8749" width="1.0583" height="1.0583" />
<rect x="16.9332" y="15.8749" width="1.0583" height="1.0583" />
<rect x="20.1082" y="15.8749" width="1.0583" height="1.0583" />
<rect x="21.1665" y="15.8749" width="1.0583" height="1.0583" />
<rect x="23.2832" y="15.8749" width="1.0583" height="1.0583" />
<rect x="24.3415" y="15.8749" width="1.0583" height="1.0583" />
<rect x="25.3998" y="15.8749" width="1.0583" height="1.0583" />
<rect x="26.4582" y="15.8749" width="1.0583" height="1.0583" />
<rect x="28.5748" y="15.8749" width="1.0583" height="1.0583" />
<rect x="29.6331" y="15.8749" width="1.0583" height="1.0583" />
<rect x="30.6915" y="15.8749" width="1.0583" height="1.0583" />
<rect x="32.8081" y="15.8749" width="1.0583" height="1.0583" />
<rect x="34.9248" y="15.8749" width="1.0583" height="1.0583" />
<rect x="35.9831" y="15.8749" width="1.0583" height="1.0583" />
<rect x="37.0414" y="15.8749" width="1.0583" height="1.0583" />
<rect x="38.0998" y="15.8749" width="1.0583" height="1.0583" />
<rect x="39.1581" y="15.8749" width="1.0583" height="1.0583" />
<rect x="40.2164" y="15.8749" width="1.0583" height="1.0583" />
<rect x="42.3331" y="15.8749" width="1.0583" height="1.0583" />
<rect x="45.5080" y="15.8749" width="1.0583" height="1.0583" />
<rect x="48.6830" y="15.8749" width="1.0583" height="1.0583" />
<rect x="49.7413" y="15.8749" width="1.0583" height="1.0583" />
<rect x="50.7997" y="15.8749" width="1.0583" height="1.0583" />
</g>
<g fill="rgb(0%,0%,0%)">
<rect x="1.0583" y="16.9332" width="1.0583" height="1.0583" />
<rect x="2.1167" y="16.9332" width="1.0583" height="1.0583" />
<rect x="3.1750" y="16.9332" width="1.0583" height="1.0583" />
<rect x="6.3500" y="16.9332" width="1.0583" height="1.0583" />
<rect x="7.4083" y="16.9332" width="1.0583" height="1.0583" />
<rect x="8.4666" y="16.9332" width="1.0583" height="1.0583" />
<rect x="12.6999" y="16.9332" width="1.0583" height="1.0583" />
<rect x="14.8166" y="16.9332" width="1.0583" height="1.0583" />
<rect x="20.1082" y="16.9332" width="1.0583" height="1.0583" />
<rect x="24.3415" y="16.9332" width="1.0583" height="1.0583" />
<rect x="27.5165" y="16.9332" width="1.0583" height="1.0583" />
<rect x="29.6331" y="16.9332" width="1.0583" height="1.0583" />
<rect x="30.6915" y="16.9332" width="1.0583" height="1.0583" />
<rect x="32.8081" y="16.9332" width="1.0583" height="1.0583" />
<rect x="33.8664" y="16.9332" width="1.0583" height="1.0583" />
<rect x="35.9831" y="16.9332" width="1.0583" height="1.0583" />
<rect x="38.0998" y="16.9332" width="1.0583" height="1.0583" />
<rect x="41.2747" y="16.9332" width="1.0583" height="1.0583" />
<rect x="44.4497" y="16.9332" width="1.0583" height="1.0583" />
<rect x="46.5664" y="16.9332" width="1.0583" height="1.0583" />
<rect x="47.6247" y="16.9332" width="1.0583" height="1.0583" />
</g>
<g fill="rgb(0%,0%,0%)">
<rect x="0.0000" y="17.9916" width="1.0583" height="1.0583" />
<rect x="5.2916" y="17.9916" width="1.0583" height="1.0583" />
<rect x="7.4083" y="17.9916" width="1.0583" height="1.0583" />
<rect x="10.5833" y="17.9916" width="1.0583" height="1.0583" />
<rect x="12.6999" y="17.9916" width="1.0583" height="1.0583" />
<rect x="14.8166" y="17.9916" width="1.0583" height="1.0583" />
<rect x="15.8749" y="17.9916" width="1.0583" height="1.0583" />
<rect x="17.9916" y="17.9916" width="1.0583" height="1.0583" />
<rect x="22.2249" y="17.9916" width="1.0583" height="1.0583" />
<rect x="23.2832" y="17.9916" width="1.0583" height="1.0583" />
<rect x="24.3415" y="17.9916" width="1.0583" height="1.0583" />
<rect x="27.5165" y="17.9916" width="1.0583" height="1.0583" />
<rect x="31.7498" y="17.9916" width="1.0583" height="1.0583" />
<rect x="34.9248" y="17.9916" width="1.0583" height="1.0583" />
<rect x="35.9831" y="17.9916" width="1.0583" height="1.0583" />
<rect x="37.0414" y="17.9916" width="1.0583" height="1.0583" />
<rect x="38.0998" y="17.9916" width="1.0583" height="1.0583" />
<rect x="39.1581" y="17.9916" width="1.0583" height="1.0583" />
<rect x="40.2164" y="17.9916" width="1.0583" height="1.0583" />
<rect x="41.2747" y="17.9916" width="1.0583" height="1.0583" />
<rect x="42.3331" y="17.9916" width="1.0583" height="1.0583" />
<rect x="44.4497" y="17.9916" width="1.0583" height="1.0583" />
</g>
<g fill="rgb(0%,0%,0%)">
<rect x="1.0583" y="19.0499" width="1.0583" height="1.0583" />
<rect x="2.1167" y="19.0499" width="1.0583" height="1.0583" />
<rect x="4.2333" y="19.0499" width="1.0583" height="1.0583" />
<rect x="5.2916" y="19.0499" width="1.0583" height="1.0583" />
<rect x="6.3500" y="19.0499" width="1.0583" height="1.0583" />
<rect x="7.4083" y="19.0499" width="1.0583" height="1.0583" />
<rect x="8.4666" y="19.0499" width="1.0583" height="1.0583" />
<rect x="9.5249" y="19.0499" width="1.0583" height="1.0583" />
<rect x="13.7582" y="19.0499" width="1.0583" height="1.0583" />
<rect x="14.8166" y="19.0499" width="1.0583" height="1.0583" />
<rect x="16.9332" y="19.0499" width="1.0583" height="1.0583" />
<rect x="17.9916" y="19.0499" width="1.0583" height="1.0583" />
<rect x="21.1665" y="19.0499" width="1.0583" height="1.0583" />
<rect x="22.2249" y="19.0499" width="1.0583" height="1.0583" />
<rect x="23.2832" y="19.0499" width="1.0583" height="1.0583" />
<rect x="25.3998" y="19.0499" width="1.0583" height="1.0583" />
<rect x="26.4582" y="19.0499" width="1.0583" height="1.0583" />
<rect x="28.5748" y="19.0499" width="1.0583" height="1.0583" />
<rect x="31.7498" y="19.0499" width="1.0583" height="1.0583" />
<rect x="32.8081" y="19.0499" width="1.0583" height="1.0583" />
<rect x="33.8664" y="19.0499" width="1.0583" height="1.0583" />
<rect x="39.1581" y="19.0499" width="1.0583" height="1.0583" />
<rect x="44.4497" y="19.0499" width="1.0583" height="1.0583" />
<rect x="45.5080" y="19.0499" width="1.0583" height="1.0583" />
<rect x="46.5664" y="19.0499" width="1.0583" height="1.0583" />
<rect x="48.6830" y="19.0499" width="1.0583" height="1.0583" />
</g>
<g fill="rgb(0%,0%,0%)">
<rect x="1.0583" y="20.1082" width="1.0583" height="1.0583" />
<rect x="4.2333" y="20.1082" width="1.0583" height="1.0583" />
<rect x="5.2916" y="20.1082" width="1.0583" height="1.0583" />
<rect x="7.4083" y="20.1082" width="1.0583" height="1.0583" />
<rect x="9.5249" y="20.1082" width="1.0583" height="1.0583" />
<rect x="17.9916" y="20.1082" width="1.0583" height="1.0583" />
<rect x="19.0499" y="20.1082" width="1.0583" height="1.0583" />
<rect x="20.1082" y="20.1082" width="1.0583" height="1.0583" />
<rect x="21.1665" y="20.1082" width="1.0583" height="1.0583" />
<rect x="22.2249" y="20.1082" width="1.0583" height="1.0583" />
<rect x="23.2832" y="20.1082" width="1.0583" height="1.0583" />
<rect x="25.3998" y="20.1082" width="1.0583" height="1.0583" />
<rect x="26.4582" y="20.1082" width="1.0583" height="1.0583" />
<rect x="30.6915" y="20.1082" width="1.0583" height="1.0583" />
<rect x="33.8664" y="20.1082" width="1.0583" height="1.0583" />
<rect x="37.0414" y="20.1082" width="1.0583" height="1.0583" />
<rect x="40.2164" y="20.1082" width="1.0583" height="1.0583" />
<rect x="41.2747" y="20.1082" width="1.0583" height="1.0583" />
<rect x="45.5080" y="20.1082" width="1.0583" height="1.0583" />
<rect x="46.5664" y="20.1082" width="1.0583" height="1.0583" />
<rect x="47.6247" y="20.1082" width="1.0583" height="1.0583" />
<rect x="48.6830" y="20.1082" width="1.0583" height="1.0583" />
<rect x="49.7413" y="20.1082" width="1.0583" height="1.0583" />
</g>
<g fill="rgb(0%,0%,0%)">
<rect x="2.1167" y="21.1665" width="1.0583" height="1.0583" />
<rect x="4.2333" y="21.1665" width="1.0583" height="1.0583" />
<rect x="6.3500" y="21.1665" width="1.0583" height="1.0583" />
<rect x="8.4666" y="21.1665" width="1.0583" height="1.0583" />
<rect x="9.5249" y="21.1665" width="1.0583" height="1.0583" />
<rect x="10.5833" y="21.1665" width="1.0583" height="1.0583" />
<rect x="14.8166" y="21.1665" width="1.0583" height="1.0583" />
<rect x="15.8749" y="21.1665" width="1.0583" height="1.0583" />
<rect x="16.9332" y="21.1665" width="1.0583" height="1.0583" />
<rect x="17.9916" y="21.1665" width="1.0583" height="1.0583" />
<rect x="19.0499" y="21.1665" width="1.0583" height="1.0583" />
<rect x="23.2832" y="21.1665" width="1.0583" height="1.0583" />
<rect x="27.5165" y="21.1665" width="1.0583" height="1.0583" />
<rect x="28.5748" y="21.1665" width="1.0583" height="1.0583" />
<rect x="31.7498" y="21.1665" width="1.0583" height="1.0583" />
<rect x="32.8081" y="21.1665" width="1.0583" height="1.0583" />
<rect x="34.9248" y="21.1665" width="1.0583" height="1.0583" />
<rect x="38.0998" y="21.1665" width="1.0583" height="1.0583" />
<rect x="39.1581" y="21.1665" width="1.0583" height="1.0583" />
<rect x="40.2164" y="21.1665" width="1.0583" height="1.0583" />
<rect x="41.2747" y="21.1665" width="1.0583" height="1.0583" />
<rect x="42.3331" y="21.1665" width="1.0583" height="1.0583" />
<rect x="45.5080" y="21.1665" width="1.0583" height="1.0583" />
<rect x="46.5664" y="21.1665" width="1.0583" height="1.0583" />
<rect x="47.6247" y="21.1665" width="1.0583" height="1.0583" />
<rect x="49.7413" y="21.1665" width="1.0583" height="1.0583" />
</g>
<g fill="rgb(0%,0%,0%)">
<rect x="3.1750" y="22.2249" width="1.0583" height="1.0583" />
<rect x="4.2333" y="22.2249" width="1.0583" height="1.0583" />
<rect x="7.4083" y="22.2249" width="1.0583" height="1.0583" />
<rect x="8.4666" y="22.2249" width="1.0583" height="1.0583" />
<rect x="12.6999" y="22.2249" width="1.0583" height="1.0583" />
<rect x="15.8749" y="22.2249" width="1.0583" height="1.0583" />
<rect x="19.0499" y="22.2249" width="1.0583" height="1.0583" />
<rect x="22.2249" y="22.2249" width="1.0583" height="1.0583" />
<rect x="24.3415" y="22.2249" width="1.0583" height="1.0583" />
<rect x="31.7498" y="22.2249" width="1.0583" height="1.0583" />
<rect x="34.9248" y="22.2249" width="1.0583" height="1.0583" />
<rect x="38.0998" y="22.2249" width="1.0583" height="1.0583" />
<rect x="39.1581" y="22.2249" width="1.0583" height="1.0583" />
<rect x="40.2164" y="22.2249" width="1.0583" height="1.0583" />
<rect x="41.2747" y="22.2249" width="1.0583" height="1.0583" />
<rect x="43.3914" y="22.2249" width="1.0583" height="1.0583" />
<rect x="46.5664" y="22.2249" width="1.0583" height="1.0583" />
<rect x="47.6247" y="22.2249" width="1.0583" height="1.0583" />
<rect x="48.6830" y="22.2249" width="1.0583" height="1.0583" />
<rect x="50.7997" y="22.2249" width="1.0583" height="1.0583" />
</g>
<g fill="rgb(0%,0%,0%)">
<rect x="2.1167" y="23.2832" width="1.0583" height="1.0583" />
<rect x="4.2333" y="23.2832" width="1.0583" height="1.0583" />
<rect x="5.2916" y="23.2832" width="1.0583" height="1.0583" />
<rect x="6.3500" y="23.2832" width="1.0583" height="1.0583" />
<rect x="7.4083" y="23.2832" width="1.0583" height="1.0583" />
<rect x="8.4666" y="23.2832" width="1.0583" height="1.0583" />
<rect x="9.5249" y="23.2832" width="1.0583" height="1.0583" />
<rect x="10.5833" y="23.2832" width="1.0583" height="1.0583" />
<rect x="15.8749" y="23.2832" width="1.0583" height="1.0583" />
<rect x="20.1082" y="23.2832" width="1.0583" height="1.0583" />
<rect x="21.1665" y="23.2832" width="1.0583" height="1.0583" />
<rect x="23.2832" y="23.2832" width="1.0583" height="1.0583" />
<rect x="24.3415" y="23.2832" width="1.0583" height="1.0583" />
<rect x="25.3998" y="23.2832" width="1.0583" height="1.0583" />
<rect x="26.4582" y="23.2832" width="1.0583" height="1.0583" />
<rect x="27.5165" y="23.2832" width="1.0583" height="1.0583" />
<rect x="38.0998" y="23.2832" width="1.0583" height="1.0583" />
<rect x="39.1581" y="23.2832" width="1.0583" height="1.0583" />
<rect x="40.2164" y="23.2832" width="1.0583" height="1.0583" />
<rect x="42.3331" y="23.2832" width="1.0583" height="1.0583" />
<rect x="43.3914" y="23.2832" width="1.0583" height="1.0583" />
<rect x="44.4497" y="23.2832" width="1.0583" height="1.0583" />
<rect x="45.5080" y="23.2832" width="1.0583" height="1.0583" />
<rect x="46.5664" y="23.2832" width="1.0583" height="1.0583" />
<rect x="50.7997" y="23.2832" width="1.0583" height="1.0583" />
</g>
<g fill="rgb(0%,0%,0%)">
<rect x="1.0583" y="24.3415" width="1.0583" height="1.0583" />
<rect x="2.1167" y="24.3415" width="1.0583" height="1.0583" />
<rect x="3.1750" y="24.3415" width="1.0583" height="1.0583" />
<rect x="4.2333" y="24.3415" width="1.0583" height="1.0583" />
<rect x="8.4666" y="24.3415" width="1.0583" height="1.0583" />
<rect x="9.5249" y="24.3415" width="1.0583" height="1.0583" />
<rect x="14.8166" y="24.3415" width="1.0583" height="1.0583" />
<rect x="16.9332" y="24.3415" width="1.0583" height="1.0583" />
<rect x="19.0499" y="24.3415" width="1.0583" height="1.0583" />
<rect x="20.1082" y="24.3415" width="1.0583" height="1.0583" />
<rect x="22.2249" y="24.3415" width="1.0583" height="1.0583" />
<rect x="23.2832" y="24.3415" width="1.0583" height="1.0583" />
<rect x="27.5165" y="24.3415" width="1.0583" height="1.0583" />
<rect x="28.5748" y="24.3415" width="1.0583" height="1.0583" />
<rect x="29.6331" y="24.3415" width="1.0583" height="1.0583" />
<rect x="31.7498" y="24.3415" width="1.0583" height="1.0583" />
<rect x="39.1581" y="24.3415" width="1.0583" height="1.0583" />
<rect x="40.2164" y="24.3415" width="1.0583" height="1.0583" />
<rect x="41.2747" y="24.3415" width="1.0583" height="1.0583" />
<rect x="42.3331" y="24.3415" width="1.0583" height="1.0583" />
<rect x="46.5664" y="24.3415" width="1.0583" height="1.0583" />
<rect x="47.6247" y="24.3415" width="1.0583" height="1.0583" />
<rect x="48.6830" y="24.3415" width="1.0583" height="1.0583" />
<rect x="49.7413" y="24.3415" width="1.0583" height="1.0583" />
</g>
<g fill="rgb(0%,0%,0%)">
<rect x="4.2333" y="25.3998" width="1.0583" height="1.0583" />
<rect x="6.3500" y="25.3998" width="1.0583" height="1.0583" />
<rect x="8.4666" y="25.3998" width="1.0583" height="1.0583" />
<rect x="11.6416" y="25.3998" width="1.0583" height="1.0583" />
<rect x="15.8749" y="25.3998" width="1.0583" height="1.0583" />
<rect x="17.9916" y="25.3998" width="1.0583" height="1.0583" />
<rect x="19.0499" y="25.3998" width="1.0583" height="1.0583" />
<rect x="22.2249" y="25.3998" width="1.0583" height="1.0583" />
<rect x="23.2832" y="25.3998" width="1.0583" height="1.0583" />
<rect x="25.3998" y="25.3998" width="1.0583" height="1.0583" />
<rect x="27.5165" y="25.3998" width="1.0583" height="1.0583" />
<rect x="28.5748" y="25.3998" width="1.0583" height="1.0583" />
<rect x="30.6915" y="25.3998" width="1.0583" height="1.0583" />
<rect x="37.0414" y="25.3998" width="1.0583" height="1.0583" />
<rect x="40.2164" y="25.3998" width="1.0583" height="1.0583" />
<rect x="41.2747" y="25.3998" width="1.0583" height="1.0583" />
<rect x="42.3331" y="25.3998" width="1.0583" height="1.0583" />
<rect x="44.4497" y="25.3998" width="1.0583" height="1.0583" />
<rect x="46.5664" y="25.3998" width="1.0583" height="1.0583" />
<rect x="49.7413" y="25.3998" width="1.0583" height="1.0583" />
<rect x="50.7997" y="25.3998" width="1.0583" height="1.0583" />
</g>
<g fill="rgb(0%,0%,0%)">
<rect x="1.0583" y="26.4582" width="1.0583" height="1.0583" />
<rect x="4.2333" y="26.4582" width="1.0583" height="1.0583" />
<rect x="8.4666" y="26.4582" width="1.0583" height="1.0583" />
<rect x="10.5833" y="26.4582" width="1.0583" height="1.0583" />
<rect x="12.6999" y="26.4582" width="1.0583" height="1.0583" />
<rect x="13.7582" y="26.4582" width="1.0583" height="1.0583" />
<rect x="15.8749" y="26.4582" width="1.0583" height="1.0583" />
<rect x="16.9332" y="26.4582" width="1.0583" height="1.0583" />
<rect x="17.9916" y="26.4582" width="1.0583" height="1.0583" />
<rect x="21.1665" y="26.4582" width="1.0583" height="1.0583" />
<rect x="23.2832" y="26.4582" width="1.0583" height="1.0583" />
<rect x="27.5165" y="26.4582" width="1.0583" height="1.0583" />
<rect x="30.6915" y="26.4582" width="1.0583" height="1.0583" />
<rect x="31.7498" y="26.4582" width="1.0583" height="1.0583" />
<rect x="32.8081" y="26.4582" width="1.0583" height="1.0583" />
<rect x="38.0998" y="26.4582" width="1.0583" height="1.0583" />
<rect x="40.2164" y="26.4582" width="1.0583" height="1.0583" />
<rect x="41.2747" y="26.4582" width="1.0583" height="1.0583" />
<rect x="42.3331" y="26.4582" width="1.0583" height="1.0583" />
<rect x="46.5664" y="26.4582" width="1.0583" height="1.0583" />
<rect x="48.6830" y="26.4582" width="1.0583" height="1.0583" />
</g>
<g fill="rgb(0%,0%,0%)">
<rect x="0.0000" y="27.5165" width="1.0583" height="1.0583" />
<rect x="1.0583" y="27.5165" width="1.0583" height="1.0583" />
<rect x="2.1167" y="27.5165" width="1.0583" height="1.0583" />
<rect x="3.1750" y="27.5165" width="1.0583" height="1.0583" />
<rect x="4.2333" y="27.5165" width="1.0583" height="1.0583" />
<rect x="5.2916" y="27.5165" width="1.0583" height="1.0583" />
<rect x="6.3500" y="27.5165" width="1.0583" height="1.0583" />
<rect x="7.4083" y="27.5165" width="1.0583" height="1.0583" />
<rect x="8.4666" y="27.5165" width="1.0583" height="1.0583" />
<rect x="9.5249" y="27.5165" width="1.0583" height="1.0583" />
<rect x="10.5833" y="27.5165" width="1.0583" height="1.0583" />
<rect x="13.7582" y="27.5165" width="1.0583" height="1.0583" />
<rect x="15.8749" y="27.5165" width="1.0583" height="1.0583" />
<rect x="20.1082" y="27.5165" width="1.0583" height="1.0583" />
<rect x="23.2832" y="27.5165" width="1.0583" height="1.0583" />
<rect x="24.3415" y="27.5165" width="1.0583" height="1.0583" />
<rect x="25.3998" y="27.5165" width="1.0583" height="1.0583" />
<rect x="26.4582" y="27.5165" width="1.0583" height="1.0583" />
<rect x="27.5165" y="27.5165" width="1.0583" height="1.0583" />
<rect x="30.6915" y="27.5165" width="1.0583" height="1.0583" />
<rect x="32.8081" y="27.5165" width="1.0583" height="1.0583" />
<rect x="33.8664" y="27.5165" width="1.0583" height="1.0583" />
<rect x="34.9248" y="27.5165" width="1.0583" height="1.0583" />
<rect x="35.9831" y="27.5165" width="1.0583" height="1.0583" />
<rect x="38.0998" y="27.5165" width="1.0583" height="1.0583" />
<rect x="41.2747" y="27.5165" width="1.0583" height="1.0583" />
<rect x="42.3331" y="27.5165" width="1.0583" height="1.0583" />
<rect x="43.3914" y="27.5165" width="1.0583" height="1.0583" />
<rect x="44.4497" y="27.5165" width="1.0583" height="1.0583" />
<rect x="45.5080" y="27.5165" width="1.0583" height="1.0583" />
<rect x="46.5664" y="27.5165" width="1.0583" height="1.0583" />
<rect x="47.6247" y="27.5165" width="1.0583" height="1.0583" />
<rect x="48.6830" y="27.5165" width="1.0583" height="1.0583" />
</g>
<g fill="rgb(0%,0%,0%)">
<rect x="1.0583" y="28.5748" width="1.0583" height="1.0583" />
<rect x="2.1167" y="28.5748" width="1.0583" height="1.0583" />
<rect x="3.1750" y="28.5748" width="1.0583" height="1.0583" />
<rect x="5.2916" y="28.5748" width="1.0583" height="1.0583" />
<rect x="7.4083" y="28.5748" width="1.0583" height="1.0583" />
<rect x="8.4666" y="28.5748" width="1.0583" height="1.0583" />
<rect x="9.5249" y="28.5748" width="1.0583" height="1.0583" />
<rect x="11.6416" y="28.5748" width="1.0583" height="1.0583" />
<rect x="12.6999" y="28.5748" width="1.0583" height="1.0583" />
<rect x="13.7582" y="28.5748" width="1.0583" height="1.0583" />
<rect x="16.9332" y="28.5748" width="1.0583" height="1.0583" />
<rect x="17.9916" y="28.5748" width="1.0583" height="1.0583" />
<rect x="19.0499" y="28.5748" width="1.0583" height="1.0583" />
<rect x="20.1082" y="28.5748" width="1.0583" height="1.0583" />
<rect x="22.2249" y="28.5748" width="1.0583" height="1.0583" />
<rect x="23.2832" y="28.5748" width="1.0583" height="1.0583" />
<rect x="24.3415" y="28.5748" width="1.0583" height="1.0583" />
<rect x="25.3998" y="28.5748" width="1.0583" height="1.0583" />
<rect x="26.4582" y="28.5748" width="1.0583" height="1.0583" />
<rect x="27.5165" y="28.5748" width="1.0583" height="1.0583" />
<rect x="28.5748" y="28.5748" width="1.0583" height="1.0583" />
<rect x="31.7498" y="28.5748" width="1.0583" height="1.0583" />
<rect x="35.9831" y="28.5748" width="1.0583" height="1.0583" />
<rect x="37.0414" y="28.5748" width="1.0583" height="1.0583" />
<rect x="38.0998" y="28.5748" width="1.0583" height="1.0583" />
<rect x="40.2164" y="28.5748" width="1.0583" height="1.0583" />
<rect x="41.2747" y="28.5748" width="1.0583" height="1.0583" />
<rect x="43.3914" y="28.5748" width="1.0583" height="1.0583" />
<rect x="44.4497" y="28.5748" width="1.0583" height="1.0583" />
<rect x="48.6830" y="28.5748" width="1.0583" height="1.0583" />
<rect x="49.7413" y="28.5748" width="1.0583" height="1.0583" />
<rect x="50.7997" y="28.5748" width="1.0583" height="1.0583" />
</g>
<g fill="rgb(0%,0%,0%)">
<rect x="0.0000" y="29.6331" width="1.0583" height="1.0583" />
<rect x="1.0583" y="29.6331" width="1.0583" height="1.0583" />
<rect x="2.1167" y="29.6331" width="1.0583" height="1.0583" />
<rect x="3.1750" y="29.6331" width="1.0583" height="1.0583" />
<rect x="4.2333" y="29.6331" width="1.0583" height="1.0583" />
<rect x="5.2916" y="29.6331" width="1.0583" height="1.0583" />
<rect x="6.3500" y="29.6331" width="1.0583" height="1.0583" />
<rect x="7.4083" y="29.6331" width="1.0583" height="1.0583" />
<rect x="8.4666" y="29.6331" width="1.0583" height="1.0583" />
<rect x="9.5249" y="29.6331" width="1.0583" height="1.0583" />
<rect x="10.5833" y="29.6331" width="1.0583" height="1.0583" />
<rect x="12.6999" y="29.6331" width="1.0583" height="1.0583" />
<rect x="14.8166" y="29.6331" width="1.0583" height="1.0583" />
<rect x="17.9916" y="29.6331" width="1.0583" height="1.0583" />
<rect x="21.1665" y="29.6331" width="1.0583" height="1.0583" />
<rect x="22.2249" y="29.6331" width="1.0583" height="1.0583" />
<rect x="23.2832" y="29.6331" width="1.0583" height="1.0583" />
<rect x="24.3415" y="29.6331" width="1.0583" height="1.0583" />
<rect x="26.4582" y="29.6331" width="1.0583" height="1.0583" />
<rect x="27.5165" y="29.6331" width="1.0583" height="1.0583" />
<rect x="28.5748" y="29.6331" width="1.0583" height="1.0583" />
<rect x="30.6915" y="29.6331" width="1.0583" height="1.0583" />
<rect x="32.8081" y="29.6331" width="1.0583" height="1.0583" />
<rect x="35.9831" y="29.6331" width="1.0583" height="1.0583" />
<rect x="39.1581" y="29.6331" width="1.0583" height="1.0583" />
<rect x="40.2164" y="29.6331" width="1.0583" height="1.0583" />
<rect x="41.2747" y="29.6331" width="1.0583" height="1.0583" />
<rect x="43.3914" y="29.6331" width="1.0583" height="1.0583" />
<rect x="44.4497" y="29.6331" width="1.0583" height="1.0583" />
<rect x="45.5080" y="29.6331" width="1.0583" height="1.0583" />
<rect x="46.5664" y="29.6331" width="1.0583" height="1.0583" />
<rect x="47.6247" y="29.6331" width="1.0583" height="1.0583" />
<rect x="49.7413" y="29.6331" width="1.0583" height="1.0583" />
</g>
<g fill="rgb(0%,0%,0%)">
<rect x="3.1750" y="30.6915" width="1.0583" height="1.0583" />
<rect x="4.2333" y="30.6915" width="1.0583" height="1.0583" />
<rect x="5.2916" y="30.6915" width="1.0583" height="1.0583" />
<rect x="7.4083" y="30.6915" width="1.0583" height="1.0583" />
<rect x="10.5833" y="30.6915" width="1.0583" height="1.0583" />
<rect x="11.6416" y="30.6915" width="1.0583" height="1.0583" />
<rect x="12.6999" y="30.6915" width="1.0583" height="1.0583" />
<rect x="15.8749" y="30.6915" width="1.0583" height="1.0583" />
<rect x="17.9916" y="30.6915" width="1.0583" height="1.0583" />
<rect x="21.1665" y="30.6915" width="1.0583" height="1.0583" />
<rect x="24.3415" y="30.6915" width="1.0583" height="1.0583" />
<rect x="25.3998" y="30.6915" width="1.0583" height="1.0583" />
<rect x="26.4582" y="30.6915" width="1.0583" height="1.0583" />
<rect x="28.5748" y="30.6915" width="1.0583" height="1.0583" />
<rect x="32.8081" y="30.6915" width="1.0583" height="1.0583" />
<rect x="33.8664" y="30.6915" width="1.0583" height="1.0583" />
<rect x="34.9248" y="30.6915" width="1.0583" height="1.0583" />
<rect x="41.2747" y="30.6915" width="1.0583" height="1.0583" />
<rect x="42.3331" y="30.6915" width="1.0583" height="1.0583" />
<rect x="46.5664" y="30.6915" width="1.0583" height="1.0583" />
<rect x="47.6247" y="30.6915" width="1.0583" height="1.0583" />
<rect x="49.7413" y="30.6915" width="1.0583" height="1.0583" />
</g>
<g fill="rgb(0%,0%,0%)">
<rect x="0.0000" y="31.7498" width="1.0583" height="1.0583" />
<rect x="1.0583" y="31.7498" width="1.0583" height="1.0583" />
<rect x="2.1167" y="31.7498" width="1.0583" height="1.0583" />
<rect x="4.2333" y="31.7498" width="1.0583" height="1.0583" />
<rect x="6.3500" y="31.7498" width="1.0583" height="1.0583" />
<rect x="12.6999" y="31.7498" width="1.0583" height="1.0583" />
<rect x="15.8749" y="31.7498" width="1.0583" height="1.0583" />
<rect x="16.9332" y="31.7498" width="1.0583" height="1.0583" />
<rect x="17.9916" y="31.7498" width="1.0583" height="1.0583" />
<rect x="19.0499" y="31.7498" width="1.0583" height="1.0583" />
<rect x="21.1665" y="31.7498" width="1.0583" height="1.0583" />
<rect x="22.2249" y="31.7498" width="1.0583" height="1.0583" />
<rect x="23.2832" y="31.7498" width="1.0583" height="1.0583" />
<rect x="28.5748" y="31.7498" width="1.0583" height="1.0583" />
<rect x="32.8081" y="31.7498" width="1.0583" height="1.0583" />
<rect x="33.8664" y="31.7498" width="1.0583" height="1.0583" />
<rect x="39.1581" y="31.7498" width="1.0583" height="1.0583" />
<rect x="41.2747" y="31.7498" width="1.0583" height="1.0583" />
<rect x="42.3331" y="31.7498" width="1.0583" height="1.0583" />
<rect x="44.4497" y="31.7498" width="1.0583" height="1.0583" />
<rect x="45.5080" y="31.7498" width="1.0583" height="1.0583" />
<rect x="47.6247" y="31.7498" width="1.0583" height="1.0583" />
<rect x="49.7413" y="31.7498" width="1.0583" height="1.0583" />
</g>
<g fill="rgb(0%,0%,0%)">
<rect x="7.4083" y="32.8081" width="1.0583" height="1.0583" />
<rect x="9.5249" y="32.8081" width="1.0583" height="1.0583" />
<rect x="12.6999" y="32.8081" width="1.0583" height="1.0583" />
<rect x="14.8166" y="32.8081" width="1.0583" height="1.0583" />
<rect x="15.8749" y="32.8081" width="1.0583" height="1.0583" />
<rect x="16.9332" y="32.8081" width="1.0583" height="1.0583" />
<rect x="19.0499" y="32.8081" width="1.0583" height="1.0583" />
<rect x="20.1082" y="32.8081" width="1.0583" height="1.0583" />
<rect x="22.2249" y="32.8081" width="1.0583" height="1.0583" />
<rect x="23.2832" y="32.8081" width="1.0583" height="1.0583" />
<rect x="25.3998" y="32.8081" width="1.0583" height="1.0583" />
<rect x="26.4582" y="32.8081" width="1.0583" height="1.0583" />
<rect x="27.5165" y="32.8081" width="1.0583" height="1.0583" />
<rect x="30.6915" y="32.8081" width="1.0583" height="1.0583" />
<rect x="31.7498" y="32.8081" width="1.0583" height="1.0583" />
<rect x="32.8081" y="32.8081" width="1.0583" height="1.0583" />
<rect x="33.8664" y="32.8081" width="1.0583" height="1.0583" />
<rect x="35.9831" y="32.8081" width="1.0583" height="1.0583" />
<rect x="37.0414" y="32.8081" width="1.0583" height="1.0583" />
<rect x="39.1581" y="32.8081" width="1.0583" height="1.0583" />
<rect x="47.6247" y="32.8081" width="1.0583" height="1.0583" />
<rect x="48.6830" y="32.8081" width="1.0583" height="1.0583" />
<rect x="50.7997" y="32.8081" width="1.0583" height="1.0583" />
</g>
<g fill="rgb(0%,0%,0%)">
<rect x="0.0000" y="33.8664" width="1.0583" height="1.0583" />
<rect x="1.0583" y="33.8664" width="1.0583" height="1.0583" />
<rect x="2.1167" y="33.8664" width="1.0583" height="1.0583" />
<rect x="4.2333" y="33.8664" width="1.0583" height="1.0583" />
<rect x="5.2916" y="33.8664" width="1.0583" height="1.0583" />
<rect x="6.3500" y="33.8664" width="1.0583" height="1.0583" />
<rect x="7.4083" y="33.8664" width="1.0583" height="1.0583" />
<rect x="10.5833" y="33.8664" width="1.0583" height="1.0583" />
<rect x="15.8749" y="33.8664" width="1.0583" height="1.0583" />
<rect x="16.9332" y="33.8664" width="1.0583" height="1.0583" />
<rect x="17.9916" y="33.8664" width="1.0583" height="1.0583" />
<rect x="20.1082" y="33.8664" width="1.0583" height="1.0583" />
<rect x="21.1665" y="33.8664" width="1.0583" height="1.0583" />
<rect x="22.2249" y="33.8664" width="1.0583" height="1.0583" />
<rect x="25.3998" y="33.8664" width="1.0583" height="1.0583" />
<rect x="26.4582" y="33.8664" width="1.0583" height="1.0583" />
<rect x="27.5165" y="33.8664" width="1.0583" height="1.0583" />
<rect x="38.0998" y="33.8664" width="1.0583" height="1.0583" />
<rect x="44.4497" y="33.8664" width="1.0583" height="1.0583" />
<rect x="45.5080" y="33.8664" width="1.0583" height="1.0583" />
<rect x="47.6247" y="33.8664" width="1.0583" height="1.0583" />
<rect x="48.6830" y="33.8664" width="1.0583" height="1.0583" />
<rect x="49.7413" y="33.8664" width="1.0583" height="1.0583" />
<rect x="50.7997" y="33.8664" width="1.0583" height="1.0583" />
</g>
<g fill="rgb(0%,0%,0%)">
<rect x="2.1167" y="34.9248" width="1.0583" height="1.0583" />
<rect x="3.1750" y="34.9248" width="1.0583" height="1.0583" />
<rect x="4.2333" y="34.9248" width="1.0583" height="1.0583" />
<rect x="5.2916" y="34.9248" width="1.0583" height="1.0583" />
<rect x="7.4083" y="34.9248" width="1.0583" height="1.0583" />
<rect x="13.7582" y="34.9248" width="1.0583" height="1.0583" />
<rect x="15.8749" y="34.9248" width="1.0583" height="1.0583" />
<rect x="16.9332" y="34.9248" width="1.0583" height="1.0583" />
<rect x="17.9916" y="34.9248" width="1.0583" height="1.0583" />
<rect x="19.0499" y="34.9248" width="1.0583" height="1.0583" />
<rect x="26.4582" y="34.9248" width="1.0583" height="1.0583" />
<rect x="27.5165" y="34.9248" width="1.0583" height="1.0583" />
<rect x="28.5748" y="34.9248" width="1.0583" height="1.0583" />
<rect x="29.6331" y="34.9248" width="1.0583" height="1.0583" />
<rect x="30.6915" y="34.9248" width="1.0583" height="1.0583" />
<rect x="32.8081" y="34.9248" width="1.0583" height="1.0583" />
<rect x="34.9248" y="34.9248" width="1.0583" height="1.0583" />
<rect x="41.2747" y="34.9248" width="1.0583" height="1.0583" />
<rect x="44.4497" y="34.9248" width="1.0583" height="1.0583" />
<rect x="45.5080" y="34.9248" width="1.0583" height="1.0583" />
<rect x="48.6830" y="34.9248" width="1.0583" height="1.0583" />
<rect x="49.7413" y="34.9248" width="1.0583" height="1.0583" />
<rect x="50.7997" y="34.9248" width="1.0583" height="1.0583" />
</g>
<g fill="rgb(0%,0%,0%)">
<rect x="2.1167" y="35.9831" width="1.0583" height="1.0583" />
<rect x="6.3500" y="35.9831" width="1.0583" height="1.0583" />
<rect x="7.4083" y="35.9831" width="1.0583" height="1.0583" />
<rect x="8.4666" y="35.9831" width="1.0583" height="1.0583" />
<rect x="10.5833" y="35.9831" width="1.0583" height="1.0583" />
<rect x="13.7582" y="35.9831" width="1.0583" height="1.0583" />
<rect x="16.9332" y="35.9831" width="1.0583" height="1.0583" />
<rect x="19.0499" y="35.9831" width="1.0583" height="1.0583" />
<rect x="20.1082" y="35.9831" width="1.0583" height="1.0583" />
<rect x="23.2832" y="35.9831" width="1.0583" height="1.0583" />
<rect x="25.3998" y="35.9831" width="1.0583" height="1.0583" />
<rect x="34.9248" y="35.9831" width="1.0583" height="1.0583" />
<rect x="38.0998" y="35.9831" width="1.0583" height="1.0583" />
<rect x="39.1581" y="35.9831" width="1.0583" height="1.0583" />
<rect x="40.2164" y="35.9831" width="1.0583" height="1.0583" />
<rect x="41.2747" y="35.9831" width="1.0583" height="1.0583" />
<rect x="45.5080" y="35.9831" width="1.0583" height="1.0583" />
<rect x="47.6247" y="35.9831" width="1.0583" height="1.0583" />
</g>
<g fill="rgb(0%,0%,0%)">
<rect x="1.0583" y="37.0414" width="1.0583" height="1.0583" />
<rect x="3.1750" y="37.0414" width="1.0583" height="1.0583" />
<rect x="4.2333" y="37.0414" width="1.0583" height="1.0583" />
<rect x="5.2916" y="37.0414" width="1.0583" height="1.0583" />
<rect x="7.4083" y="37.0414" width="1.0583" height="1.0583" />
<rect x="9.5249" y="37.0414" width="1.0583" height="1.0583" />
<rect x="10.5833" y="37.0414" width="1.0583" height="1.0583" />
<rect x="11.6416" y="37.0414" width="1.0583" height="1.0583" />
<rect x="13.7582" y="37.0414" width="1.0583" height="1.0583" />
<rect x="14.8166" y="37.0414" width="1.0583" height="1.0583" />
<rect x="16.9332" y="37.0414" width="1.0583" height="1.0583" />
<rect x="19.0499" y="37.0414" width="1.0583" height="1.0583" />
<rect x="23.2832" y="37.0414" width="1.0583" height="1.0583" />
<rect x="26.4582" y="37.0414" width="1.0583" height="1.0583" />
<rect x="27.5165" y="37.0414" width="1.0583" height="1.0583" />
<rect x="28.5748" y="37.0414" width="1.0583" height="1.0583" />
<rect x="29.6331" y="37.0414" width="1.0583" height="1.0583" />
<rect x="31.7498" y="37.0414" width="1.0583" height="1.0583" />
<rect x="32.8081" y="37.0414" width="1.0583" height="1.0583" />
<rect x="35.9831" y="37.0414" width="1.0583" height="1.0583" />
<rect x="37.0414" y="37.0414" width="1.0583" height="1.0583" />
<rect x="39.1581" y="37.0414" width="1.0583" height="1.0583" />
<rect x="40.2164" y="37.0414" width="1.0583" height="1.0583" />
<rect x="43.3914" y="37.0414" width="1.0583" height="1.0583" />
<rect x="45.5080" y="37.0414" width="1.0583" height="1.0583" />
<rect x="48.6830" y="37.0414" width="1.0583" height="1.0583" />
</g>
<g fill="rgb(0%,0%,0%)">
<rect x="0.0000" y="38.0998" width="1.0583" height="1.0583" />
<rect x="1.0583" y="38.0998" width="1.0583" height="1.0583" />
<rect x="3.1750" y="38.0998" width="1.0583" height="1.0583" />
<rect x="4.2333" y="38.0998" width="1.0583" height="1.0583" />
<rect x="5.2916" y="38.0998" width="1.0583" height="1.0583" />
<rect x="6.3500" y="38.0998" width="1.0583" height="1.0583" />
<rect x="10.5833" y="38.0998" width="1.0583" height="1.0583" />
<rect x="11.6416" y="38.0998" width="1.0583" height="1.0583" />
<rect x="12.6999" y="38.0998" width="1.0583" height="1.0583" />
<rect x="13.7582" y="38.0998" width="1.0583" height="1.0583" />
<rect x="14.8166" y="38.0998" width="1.0583" height="1.0583" />
<rect x="17.9916" y="38.0998" width="1.0583" height="1.0583" />
<rect x="20.1082" y="38.0998" width="1.0583" height="1.0583" />
<rect x="23.2832" y="38.0998" width="1.0583" height="1.0583" />
<rect x="25.3998" y="38.0998" width="1.0583" height="1.0583" />
<rect x="26.4582" y="38.0998" width="1.0583" height="1.0583" />
<rect x="28.5748" y="38.0998" width="1.0583" height="1.0583" />
<rect x="29.6331" y="38.0998" width="1.0583" height="1.0583" />
<rect x="30.6915" y="38.0998" width="1.0583" height="1.0583" />
<rect x="31.7498" y="38.0998" width="1.0583" height="1.0583" />
<rect x="32.8081" y="38.0998" width="1.0583" height="1.0583" />
<rect x="34.9248" y="38.0998" width="1.0583" height="1.0583" />
<rect x="35.9831" y="38.0998" width="1.0583" height="1.0583" />
<rect x="37.0414" y="38.0998" width="1.0583" height="1.0583" />
<rect x="39.1581" y="38.0998" width="1.0583" height="1.0583" />
<rect x="40.2164" y="38.0998" width="1.0583" height="1.0583" />
<rect x="41.2747" y="38.0998" width="1.0583" height="1.0583" />
<rect x="42.3331" y="38.0998" width="1.0583" height="1.0583" />
<rect x="44.4497" y="38.0998" width="1.0583" height="1.0583" />
<rect x="45.5080" y="38.0998" width="1.0583" height="1.0583" />
<rect x="48.6830" y="38.0998" width="1.0583" height="1.0583" />
<rect x="50.7997" y="38.0998" width="1.0583" height="1.0583" />
</g>
<g fill="rgb(0%,0%,0%)">
<rect x="0.0000" y="39.1581" width="1.0583" height="1.0583" />
<rect x="2.1167" y="39.1581" width="1.0583" height="1.0583" />
<rect x="3.1750" y="39.1581" width="1.0583" height="1.0583" />
<rect x="4.2333" y="39.1581" width="1.0583" height="1.0583" />
<rect x="5.2916" y="39.1581" width="1.0583" height="1.0583" />
<rect x="11.6416" y="39.1581" width="1.0583" height="1.0583" />
<rect x="14.8166" y="39.1581" width="1.0583" height="1.0583" />
<rect x="17.9916" y="39.1581" width="1.0583" height="1.0583" />
<rect x="21.1665" y="39.1581" width="1.0583" height="1.0583" />
<rect x="23.2832" y="39.1581" width="1.0583" height="1.0583" />
<rect x="24.3415" y="39.1581" width="1.0583" height="1.0583" />
<rect x="27.5165" y="39.1581" width="1.0583" height="1.0583" />
<rect x="29.6331" y="39.1581" width="1.0583" height="1.0583" />
<rect x="30.6915" y="39.1581" width="1.0583" height="1.0583" />
<rect x="32.8081" y="39.1581" width="1.0583" height="1.0583" />
<rect x="33.8664" y="39.1581" width="1.0583" height="1.0583" />
<rect x="37.0414" y="39.1581" width="1.0583" height="1.0583" />
<rect x="38.0998" y="39.1581" width="1.0583" height="1.0583" />
<rect x="40.2164" y="39.1581" width="1.0583" height="1.0583" />
<rect x="41.2747" y="39.1581" width="1.0583" height="1.0583" />
<rect x="48.6830" y="39.1581" width="1.0583" height="1.0583" />
</g>
<g fill="rgb(0%,0%,0%)">
<rect x="1.0583" y="40.2164" width="1.0583" height="1.0583" />
<rect x="5.2916" y="40.2164" width="1.0583" height="1.0583" />
<rect x="6.3500" y="40.2164" width="1.0583" height="1.0583" />
<rect x="7.4083" y="40.2164" width="1.0583" height="1.0583" />
<rect x="11.6416" y="40.2164" width="1.0583" height="1.0583" />
<rect x="13.7582" y="40.2164" width="1.0583" height="1.0583" />
<rect x="14.8166" y="40.2164" width="1.0583" height="1.0583" />
<rect x="15.8749" y="40.2164" width="1.0583" height="1.0583" />
<rect x="16.9332" y="40.2164" width="1.0583" height="1.0583" />
<rect x="22.2249" y="40.2164" width="1.0583" height="1.0583" />
<rect x="23.2832" y="40.2164" width="1.0583" height="1.0583" />
<rect x="26.4582" y="40.2164" width="1.0583" height="1.0583" />
<rect x="27.5165" y="40.2164" width="1.0583" height="1.0583" />
<rect x="28.5748" y="40.2164" width="1.0583" height="1.0583" />
<rect x="29.6331" y="40.2164" width="1.0583" height="1.0583" />
<rect x="31.7498" y="40.2164" width="1.0583" height="1.0583" />
<rect x="32.8081" y="40.2164" width="1.0583" height="1.0583" />
<rect x="34.9248" y="40.2164" width="1.0583" height="1.0583" />
<rect x="35.9831" y="40.2164" width="1.0583" height="1.0583" />
<rect x="38.0998" y="40.2164" width="1.0583" height="1.0583" />
<rect x="46.5664" y="40.2164" width="1.0583" height="1.0583" />
<rect x="50.7997" y="40.2164" width="1.0583" height="1.0583" />
</g>
<g fill="rgb(0%,0%,0%)">
<rect x="1.0583" y="41.2747" width="1.0583" height="1.0583" />
<rect x="2.1167" y="41.2747" width="1.0583" height="1.0583" />
<rect x="3.1750" y="41.2747" width="1.0583" height="1.0583" />
<rect x="7.4083" y="41.2747" width="1.0583" height="1.0583" />
<rect x="8.4666" y="41.2747" width="1.0583" height="1.0583" />
<rect x="10.5833" y="41.2747" width="1.0583" height="1.0583" />
<rect x="12.6999" y="41.2747" width="1.0583" height="1.0583" />
<rect x="13.7582" y="41.2747" width="1.0583" height="1.0583" />
<rect x="15.8749" y="41.2747" width="1.0583" height="1.0583" />
<rect x="19.0499" y="41.2747" width="1.0583" height="1.0583" />
<rect x="22.2249" y="41.2747" width="1.0583" height="1.0583" />
<rect x="23.2832" y="41.2747" width="1.0583" height="1.0583" />
<rect x="25.3998" y="41.2747" width="1.0583" height="1.0583" />
<rect x="26.4582" y="41.2747" width="1.0583" height="1.0583" />
<rect x="28.5748" y="41.2747" width="1.0583" height="1.0583" />
<rect x="32.8081" y="41.2747" width="1.0583" height="1.0583" />
<rect x="35.9831" y="41.2747" width="1.0583" height="1.0583" />
<rect x="38.0998" y="41.2747" width="1.0583" height="1.0583" />
<rect x="39.1581" y="41.2747" width="1.0583" height="1.0583" />
<rect x="40.2164" y="41.2747" width="1.0583" height="1.0583" />
<rect x="41.2747" y="41.2747" width="1.0583" height="1.0583" />
<rect x="42.3331" y="41.2747" width="1.0583" height="1.0583" />
<rect x="43.3914" y="41.2747" width="1.0583" height="1.0583" />
<rect x="44.4497" y="41.2747" width="1.0583" height="1.0583" />
<rect x="46.5664" y="41.2747" width="1.0583" height="1.0583" />
<rect x="47.6247" y="41.2747" width="1.0583" height="1.0583" />
<rect x="49.7413" y="41.2747" width="1.0583" height="1.0583" />
<rect x="50.7997" y="41.2747" width="1.0583" height="1.0583" />
</g>
<g fill="rgb(0%,0%,0%)">
<rect x="0.0000" y="42.3331" width="1.0583" height="1.0583" />
<rect x="1.0583" y="42.3331" width="1.0583" height="1.0583" />
<rect x="2.1167" y="42.3331" width="1.0583" height="1.0583" />
<rect x="6.3500" y="42.3331" width="1.0583" height="1.0583" />
<rect x="8.4666" y="42.3331" width="1.0583" height="1.0583" />
<rect x="11.6416" y="42.3331" width="1.0583" height="1.0583" />
<rect x="14.8166" y="42.3331" width="1.0583" height="1.0583" />
<rect x="19.0499" y="42.3331" width="1.0583" height="1.0583" />
<rect x="20.1082" y="42.3331" width="1.0583" height="1.0583" />
<rect x="21.1665" y="42.3331" width="1.0583" height="1.0583" />
<rect x="23.2832" y="42.3331" width="1.0583" height="1.0583" />
<rect x="24.3415" y="42.3331" width="1.0583" height="1.0583" />
<rect x="25.3998" y="42.3331" width="1.0583" height="1.0583" />
<rect x="26.4582" y="42.3331" width="1.0583" height="1.0583" />
<rect x="27.5165" y="42.3331" width="1.0583" height="1.0583" />
<rect x="28.5748" y="42.3331" width="1.0583" height="1.0583" />
<rect x="31.7498" y="42.3331" width="1.0583" height="1.0583" />
<rect x="32.8081" y="42.3331" width="1.0583" height="1.0583" />
<rect x="35.9831" y="42.3331" width="1.0583" height="1.0583" />
<rect x="38.0998" y="42.3331" width="1.0583" height="1.0583" />
<rect x="39.1581" y="42.3331" width="1.0583" height="1.0583" />
<rect x="40.2164" y="42.3331" width="1.0583" height="1.0583" />
<rect x="42.3331" y="42.3331" width="1.0583" height="1.0583" />
<rect x="43.3914" y="42.3331" width="1.0583" height="1.0583" />
<rect x="44.4497" y="42.3331" width="1.0583" height="1.0583" />
<rect x="45.5080" y="42.3331" width="1.0583" height="1.0583" />
<rect x="46.5664" y="42.3331" width="1.0583" height="1.0583" />
<rect x="47.6247" y="42.3331" width="1.0583" height="1.0583" />
</g>
<g fill="rgb(0%,0%,0%)">
<rect x="8.4666" y="43.3914" width="1.0583" height="1.0583" />
<rect x="11.6416" y="43.3914" width="1.0583" height="1.0583" />
<rect x="13.7582" y="43.3914" width="1.0583" height="1.0583" />
<rect x="16.9332" y="43.3914" width="1.0583" height="1.0583" />
<rect x="17.9916" y="43.3914" width="1.0583" height="1.0583" />
<rect x="20.1082" y="43.3914" width="1.0583" height="1.0583" />
<rect x="23.2832" y="43.3914" width="1.0583" height="1.0583" />
<rect x="27.5165" y="43.3914" width="1.0583" height="1.0583" />
<rect x="28.5748" y="43.3914" width="1.0583" height="1.0583" />
<rect x="30.6915" y="43.3914" width="1.0583" height="1.0583" />
<rect x="31.7498" y="43.3914" width="1.0583" height="1.0583" />
<rect x="32.8081" y="43.3914" width="1.0583" height="1.0583" />
<rect x="33.8664" y="43.3914" width="1.0583" height="1.0583" />
<rect x="34.9248" y="43.3914" width="1.0583" height="1.0583" />
<rect x="35.9831" y="43.3914" width="1.0583" height="1.0583" />
<rect x="39.1581" y="43.3914" width="1.0583" height="1.0583" />
<rect x="42.3331" y="43.3914" width="1.0583" height="1.0583" />
<rect x="46.5664" y="43.3914" width="1.0583" height="1.0583" />
<rect x="47.6247" y="43.3914" width="1.0583" height="1.0583" />
<rect x="48.6830" y="43.3914" width="1.0583" height="1.0583" />
<rect x="49.7413" y="43.3914" width="1.0583" height="1.0583" />
</g>
<g fill="rgb(0%,0%,0%)">
<rect x="0.0000" y="44.4497" width="1.0583" height="1.0583" />
<rect x="1.0583" y="44.4497" width="1.0583" height="1.0583" />
<rect x="2.1167" y="44.4497" width="1.0583" height="1.0583" />
<rect x="3.1750" y="44.4497" width="1.0583" height="1.0583" />
<rect x="4.2333" y="44.4497" width="1.0583" height="1.0583" />
<rect x="5.2916" y="44.4497" width="1.0583" height="1.0583" />
<rect x="6.3500" y="44.4497" width="1.0583" height="1.0583" />
<rect x="11.6416" y="44.4497" width="1.0583" height="1.0583" />
<rect x="15.8749" y="44.4497" width="1.0583" height="1.0583" />
<rect x="16.9332" y="44.4497" width="1.0583" height="1.0583" />
<rect x="19.0499" y="44.4497" width="1.0583" height="1.0583" />
<rect x="21.1665" y="44.4497" width="1.0583" height="1.0583" />
<rect x="23.2832" y="44.4497" width="1.0583" height="1.0583" />
<rect x="25.3998" y="44.4497" width="1.0583" height="1.0583" />
<rect x="27.5165" y="44.4497" width="1.0583" height="1.0583" />
<rect x="28.5748" y="44.4497" width="1.0583" height="1.0583" />
<rect x="30.6915" y="44.4497" width="1.0583" height="1.0583" />
<rect x="31.7498" y="44.4497" width="1.0583" height="1.0583" />
<rect x="33.8664" y="44.4497" width="1.0583" height="1.0583" />
<rect x="37.0414" y="44.4497" width="1.0583" height="1.0583" />
<rect x="39.1581" y="44.4497" width="1.0583" height="1.0583" />
<rect x="42.3331" y="44.4497" width="1.0583" height="1.0583" />
<rect x="44.4497" y="44.4497" width="1.0583" height="1.0583" />
<rect x="46.5664" y="44.4497" width="1.0583" height="1.0583" />
</g>
<g fill="rgb(0%,0%,0%)">
<rect x="0.0000" y="45.5080" width="1.0583" height="1.0583" />
<rect x="6.3500" y="45.5080" width="1.0583" height="1.0583" />
<rect x="9.5249" y="45.5080" width="1.0583" height="1.0583" />
<rect x="10.5833" y="45.5080" width="1.0583" height="1.0583" />
<rect x="11.6416" y="45.5080" width="1.0583" height="1.0583" />
<rect x="13.7582" y="45.5080" width="1.0583" height="1.0583" />
<rect x="14.8166" y="45.5080" width="1.0583" height="1.0583" />
<rect x="20.1082" y="45.5080" width="1.0583" height="1.0583" />
<rect x="21.1665" y="45.5080" width="1.0583" height="1.0583" />
<rect x="23.2832" y="45.5080" width="1.0583" height="1.0583" />
<rect x="27.5165" y="45.5080" width="1.0583" height="1.0583" />
<rect x="28.5748" y="45.5080" width="1.0583" height="1.0583" />
<rect x="29.6331" y="45.5080" width="1.0583" height="1.0583" />
<rect x="31.7498" y="45.5080" width="1.0583" height="1.0583" />
<rect x="32.8081" y="45.5080" width="1.0583" height="1.0583" />
<rect x="33.8664" y="45.5080" width="1.0583" height="1.0583" />
<rect x="39.1581" y="45.5080" width="1.0583" height="1.0583" />
<rect x="42.3331" y="45.5080" width="1.0583" height="1.0583" />
<rect x="46.5664" y="45.5080" width="1.0583" height="1.0583" />
<rect x="49.7413" y="45.5080" width="1.0583" height="1.0583" />
<rect x="50.7997" y="45.5080" width="1.0583" height="1.0583" />
</g>
<g fill="rgb(0%,0%,0%)">
<rect x="0.0000" y="46.5664" width="1.0583" height="1.0583" />
<rect x="2.1167" y="46.5664" width="1.0583" height="1.0583" />
<rect x="3.1750" y="46.5664" width="1.0583" height="1.0583" />
<rect x="4.2333" y="46.5664" width="1.0583" height="1.0583" />
<rect x="6.3500" y="46.5664" width="1.0583" height="1.0583" />
<rect x="13.7582" y="46.5664" width="1.0583" height="1.0583" />
<rect x="16.9332" y="46.5664" width="1.0583" height="1.0583" />
<rect x="20.1082" y="46.5664" width="1.0583" height="1.0583" />
<rect x="23.2832" y="46.5664" width="1.0583" height="1.0583" />
<rect x="24.3415" y="46.5664" width="1.0583" height="1.0583" />
<rect x="25.3998" y="46.5664" width="1.0583" height="1.0583" />
<rect x="26.4582" y="46.5664" width="1.0583" height="1.0583" />
<rect x="27.5165" y="46.5664" width="1.0583" height="1.0583" />
<rect x="28.5748" y="46.5664" width="1.0583" height="1.0583" />
<rect x="30.6915" y="46.5664" width="1.0583" height="1.0583" />
<rect x="34.9248" y="46.5664" width="1.0583" height="1.0583" />
<rect x="37.0414" y="46.5664" width="1.0583" height="1.0583" />
<rect x="38.0998" y="46.5664" width="1.0583" height="1.0583" />
<rect x="41.2747" y="46.5664" width="1.0583" height="1.0583" />
<rect x="42.3331" y="46.5664" width="1.0583" height="1.0583" />
<rect x="43.3914" y="46.5664" width="1.0583" height="1.0583" />
<rect x="44.4497" y="46.5664" width="1.0583" height="1.0583" />
<rect x="45.5080" y="46.5664" width="1.0583" height="1.0583" />
<rect x="46.5664" y="46.5664" width="1.0583" height="1.0583" />
<rect x="48.6830" y="46.5664" width="1.0583" height="1.0583" />
</g>
<g fill="rgb(0%,0%,0%)">
<rect x="0.0000" y="47.6247" width="1.0583" height="1.0583" />
<rect x="2.1167" y="47.6247" width="1.0583" height="1.0583" />
<rect x="3.1750" y="47.6247" width="1.0583" height="1.0583" />
<rect x="4.2333" y="47.6247" width="1.0583" height="1.0583" />
<rect x="6.3500" y="47.6247" width="1.0583" height="1.0583" />
<rect x="8.4666" y="47.6247" width="1.0583" height="1.0583" />
<rect x="9.5249" y="47.6247" width="1.0583" height="1.0583" />
<rect x="10.5833" y="47.6247" width="1.0583" height="1.0583" />
<rect x="11.6416" y="47.6247" width="1.0583" height="1.0583" />
<rect x="13.7582" y="47.6247" width="1.0583" height="1.0583" />
<rect x="16.9332" y="47.6247" width="1.0583" height="1.0583" />
<rect x="17.9916" y="47.6247" width="1.0583" height="1.0583" />
<rect x="19.0499" y="47.6247" width="1.0583" height="1.0583" />
<rect x="20.1082" y="47.6247" width="1.0583" height="1.0583" />
<rect x="21.1665" y="47.6247" width="1.0583" height="1.0583" />
<rect x="25.3998" y="47.6247" width="1.0583" height="1.0583" />
<rect x="26.4582" y="47.6247" width="1.0583" height="1.0583" />
<rect x="32.8081" y="47.6247" width="1.0583" height="1.0583" />
<rect x="33.8664" y="47.6247" width="1.0583" height="1.0583" />
<rect x="35.9831" y="47.6247" width="1.0583" height="1.0583" />
<rect x="38.0998" y="47.6247" width="1.0583" height="1.0583" />
<rect x="39.1581" y="47.6247" width="1.0583" height="1.0583" />
<rect x="41.2747" y="47.6247" width="1.0583" height="1.0583" />
<rect x="47.6247" y="47.6247" width="1.0583" height="1.0583" />
<rect x="48.6830" y="47.6247" width="1.0583" height="1.0583" />
<rect x="50.7997" y="47.6247" width="1.0583" height="1.0583" />
</g>
<g fill="rgb(0%,0%,0%)">
<rect x="0.0000" y="48.6830" width="1.0583" height="1.0583" />
<rect x="2.1167" y="48.6830" width="1.0583" height="1.0583" />
<rect x="3.1750" y="48.6830" width="1.0583" height="1.0583" />
<rect x="4.2333" y="48.6830" width="1.0583" height="1.0583" />
<rect x="6.3500" y="48.6830" width="1.0583" height="1.0583" />
<rect x="8.4666" y="48.6830" width="1.0583" height="1.0583" />
<rect x="11.6416" y="48.6830" width="1.0583" height="1.0583" />
<rect x="12.6999" y="48.6830" width="1.0583" height="1.0583" />
<rect x="13.7582" y="48.6830" width="1.0583" height="1.0583" />
<rect x="16.9332" y="48.6830" width="1.0583" height="1.0583" />
<rect x="17.9916" y="48.6830" width="1.0583" height="1.0583" />
<rect x="22.2249" y="48.6830" width="1.0583" height="1.0583" />
<rect x="25.3998" y="48.6830" width="1.0583" height="1.0583" />
<rect x="28.5748" y="48.6830" width="1.0583" height="1.0583" />
<rect x="30.6915" y="48.6830" width="1.0583" height="1.0583" />
<rect x="33.8664" y="48.6830" width="1.0583" height="1.0583" />
<rect x="34.9248" y="48.6830" width="1.0583" height="1.0583" />
<rect x="38.0998" y="48.6830" width="1.0583" height="1.0583" />
<rect x="39.1581" y="48.6830" width="1.0583" height="1.0583" />
<rect x="40.2164" y="48.6830" width="1.0583" height="1.0583" />
<rect x="41.2747" y="48.6830" width="1.0583" height="1.0583" />
<rect x="42.3331" y="48.6830" width="1.0583" height="1.0583" />
<rect x="44.4497" y="48.6830" width="1.0583" height="1.0583" />
<rect x="46.5664" y="48.6830" width="1.0583" height="1.0583" />
<rect x="48.6830" y="48.6830" width="1.0583" height="1.0583" />
<rect x="49.7413" y="48.6830" width="1.0583" height="1.0583" />
</g>
<g fill="rgb(0%,0%,0%)">
<rect x="0.0000" y="49.7413" width="1.0583" height="1.0583" />
<rect x="6.3500" y="49.7413" width="1.0583" height="1.0583" />
<rect x="8.4666" y="49.7413" width="1.0583" height="1.0583" />
<rect x="10.5833" y="49.7413" width="1.0583" height="1.0583" />
<rect x="11.6416" y="49.7413" width="1.0583" height="1.0583" />
<rect x="12.6999" y="49.7413" width="1.0583" height="1.0583" />
<rect x="15.8749" y="49.7413" width="1.0583" height="1.0583" />
<rect x="21.1665" y="49.7413" width="1.0583" height="1.0583" />
<rect x="26.4582" y="49.7413" width="1.0583" height="1.0583" />
<rect x="27.5165" y="49.7413" width="1.0583" height="1.0583" />
<rect x="29.6331" y="49.7413" width="1.0583" height="1.0583" />
<rect x="31.7498" y="49.7413" width="1.0583" height="1.0583" />
<rect x="37.0414" y="49.7413" width="1.0583" height="1.0583" />
<rect x="40.2164" y="49.7413" width="1.0583" height="1.0583" />
<rect x="42.3331" y="49.7413" width="1.0583" height="1.0583" />
<rect x="44.4497" y="49.7413" width="1.0583" height="1.0583" />
<rect x="45.5080" y="49.7413" width="1.0583" height="1.0583" />
<rect x="47.6247" y="49.7413" width="1.0583" height="1.0583" />
<rect x="48.6830" y="49.7413" width="1.0583" height="1.0583" />
<rect x="50.7997" y="49.7413" width="1.0583" height="1.0583" />
</g>
<g fill="rgb(0%,0%,0%)">
<rect x="0.0000" y="50.7997" width="1.0583" height="1.0583" />
<rect x="1.0583" y="50.7997" width="1.0583" height="1.0583" />
<rect x="2.1167" y="50.7997" width="1.0583" height="1.0583" />
<rect x="3.1750" y="50.7997" width="1.0583" height="1.0583" />
<rect x="4.2333" y="50.7997" width="1.0583" height="1.0583" />
<rect x="5.2916" y="50.7997" width="1.0583" height="1.0583" />
<rect x="6.3500" y="50.7997" width="1.0583" height="1.0583" />
<rect x="8.4666" y="50.7997" width="1.0583" height="1.0583" />
<rect x="12.6999" y="50.7997" width="1.0583" height="1.0583" />
<rect x="13.7582" y="50.7997" width="1.0583" height="1.0583" />
<rect x="14.8166" y="50.7997" width="1.0583" height="1.0583" />
<rect x="15.8749" y="50.7997" width="1.0583" height="1.0583" />
<rect x="16.9332" y="50.7997" width="1.0583" height="1.0583" />
<rect x="20.1082" y="50.7997" width="1.0583" height="1.0583" />
<rect x="21.1665" y="50.7997" width="1.0583" height="1.0583" />
<rect x="22.2249" y="50.7997" width="1.0583" height="1.0583" />
<rect x="23.2832" y="50.7997" width="1.0583" height="1.0583" />
<rect x="24.3415" y="50.7997" width="1.0583" height="1.0583" />
<rect x="25.3998" y="50.7997" width="1.0583" height="1.0583" />
<rect x="30.6915" y="50.7997" width="1.0583" height="1.0583" />
<rect x="32.8081" y="50.7997" width="1.0583" height="1.0583" />
<rect x="34.9248" y="50.7997" width="1.0583" height="1.0583" />
<rect x="38.0998" y="50.7997" width="1.0583" height="1.0583" />
<rect x="41.2747" y="50.7997" width="1.0583" height="1.0583" />
<rect x="43.3914" y="50.7997" width="1.0583" height="1.0583" />
<rect x="44.4497" y="50.7997" width="1.0583" height="1.0583" />
<rect x="46.5664" y="50.7997" width="1.0583" height="1.0583" />
<rect x="50.7997" y="50.7997" width="1.0583" height="1.0583" />
</g>
</svg>
