<svg height="446pt" viewBox="0 0 446 446" width="446pt" xmlns="http://www.w3.org/2000/svg"><path d="m437.558594 185.601562v210.71875c.003906 22.914063-18.574219 41.492188-41.488282 41.488282h-346.140624c-22.914063.003906-41.492188-18.574219-41.488282-41.488282v-210.71875l50.636719 34.828126 140.410156 96.601562c14.160157 9.738281 32.863281 9.738281 47.023438 0l140.410156-96.601562zm0 0" fill="#00acea"/><path d="m437.558594 185.601562-50.636719 34.828126-.042969-.058594v-75.542969zm0 0" fill="#f4b844"/><path d="m386.921875 220.429688-140.410156 96.601562c-14.160157 9.738281-32.863281 9.738281-47.023438 0l-140.410156-96.601562.042969-.058594v-212.179688h327.757812v212.179688zm-56.453125-70.949219-20.378906-28.300781-.140625-34.878907-33.140625-10.902343-20.589844-28.160157-33.21875 10.691407-33.21875-10.691407-20.589844 28.160157-33.140625 10.902343-.140625 34.878907-20.378906 28.300781 20.378906 28.300781.140625 34.878906 33.140625 10.890625 20.589844 28.160157 33.21875-10.679688 33.21875 10.679688 20.589844-28.160157 33.140625-10.890625.140625-34.878906zm0 0" fill="#00efd1"/><path d="m310.089844 121.179688 20.378906 28.300781-20.378906 28.300781-.140625 34.878906-33.140625 10.890625-20.589844 28.160157-33.21875-10.679688-33.21875 10.679688-20.589844-28.160157-33.140625-10.890625-.140625-34.878906-20.378906-28.300781 20.378906-28.300781.140625-34.878907 33.140625-10.902343 20.589844-28.160157 33.21875 10.691407 33.21875-10.691407 20.589844 28.160157 33.140625 10.902343zm-31.351563 28.300781c0-30.785157-24.953125-55.742188-55.738281-55.742188s-55.738281 24.957031-55.738281 55.742188c0 30.785156 24.953125 55.738281 55.738281 55.738281 30.785156.003906 55.742188-24.953125 55.738281-55.738281zm0 0" fill="#fedb41"/><path d="m278.738281 149.480469c0 30.785156-24.953125 55.738281-55.738281 55.738281s-55.738281-24.953125-55.738281-55.738281c0-30.785157 24.953125-55.742188 55.738281-55.742188s55.738281 24.957031 55.738281 55.742188zm0 0" fill="#f4b844"/><path d="m59.121094 144.828125v75.542969l-.042969.058594-50.636719-34.828126zm0 0" fill="#f4b844"/><g fill="#083863"><path d="m442.78125 179.378906-.039062-.011718-47.742188-38.367188v-132.808594c-.039062-4.480468-3.640625-8.113281-8.121094-8.191406h-327.757812c-4.480469.078125-8.082032 3.710938-8.121094 8.191406v132.808594l-47.636719 38.367188-.175781.011718c-1.941406 1.492188-3.109375 3.773438-3.1875 6.222656v210.71875c0 27.289063 22.640625 49.679688 49.929688 49.679688h346.140624c27.289063 0 49.929688-22.390625 49.929688-49.679688v-210.71875c-.089844-2.453124-1.269531-4.734374-3.21875-6.222656zm-47.78125-17.847656 29.292969 23.570312-29.292969 20.144532zm-328-145.53125h312v200.25l-136.964844 94.1875c-11.480468 7.808594-26.5625 7.808594-38.042968 0l-136.992188-94.183594zm-16 145.53125v43.714844l-29.292969-20.144532zm379 234.789062c0 18.464844-15.464844 33.679688-33.929688 33.679688h-346.140624c-18.464844 0-33.929688-15.214844-33.929688-33.679688v-195.507812l178.734375 122.808594c17.039063 11.539062 39.382813 11.539062 56.417969 0l178.847656-122.808594zm0 0"/><path d="m253.769531 259.324219c3.285157 1.058593 6.875-.109375 8.910157-2.890625l19.070312-26.085938 30.699219-10.085937c3.273437-1.078125 5.488281-4.125 5.5-7.570313l.128906-32.316406 18.882813-26.21875c2.011718-2.792969 2.011718-6.558594 0-9.351562l-18.882813-26.21875-.128906-32.316407c-.011719-3.445312-2.226563-6.492187-5.5-7.570312l-30.699219-10.097657-19.070312-26.082031c-2.035157-2.785156-5.628907-3.949219-8.910157-2.894531l-30.769531 9.902344-30.769531-9.902344c-3.28125-1.054688-6.875.109375-8.910157 2.894531l-19.070312 26.082031-30.699219 10.097657c-3.273437 1.078125-5.488281 4.125-5.5 7.570312l-.128906 32.316407-18.882813 26.21875c-2.011718 2.792968-2.011718 6.558593 0 9.351562l18.882813 26.21875.128906 32.316406c.011719 3.445313 2.226563 6.492188 5.5 7.570313l30.699219 10.085937 19.070312 26.085938c2.035157 2.78125 5.625 3.949218 8.910157 2.890625l30.769531-9.890625zm-60.941406-17-17.179687-23.5c-.988282-1.347657-2.371094-2.355469-3.960938-2.875l-27.660156-9.089844-.117188-29.113281c-.007812-1.667969-.535156-3.289063-1.507812-4.644532l-17.011719-23.621093 17.007813-23.625c.976562-1.351563 1.503906-2.976563 1.507812-4.644531l.117188-29.113282 27.664062-9.101562c1.585938-.519532 2.972656-1.527344 3.957031-2.875l17.179688-23.5 27.722656 8.917968c1.59375.515626 3.308594.515626 4.902344 0l27.722656-8.917968 17.179687 23.5c.984376 1.347656 2.371094 2.355468 3.960938 2.878906l27.660156 9.101562.117188 29.113282c.007812 1.667968.535156 3.289062 1.507812 4.640625l17.011719 23.625-17.007813 23.625c-.976562 1.351562-1.503906 2.976562-1.507812 4.640625l-.117188 29.113281-27.664062 9.089844c-1.585938.523437-2.972656 1.527343-3.957031 2.878906l-17.183594 23.5-27.722656-8.914063c-1.59375-.511718-3.304688-.511718-4.898438 0zm0 0"/><path d="m286.738281 149.480469c0-35.203125-28.535156-63.742188-63.738281-63.742188s-63.738281 28.539063-63.738281 63.742188 28.535156 63.738281 63.738281 63.738281c35.1875-.039062 63.699219-28.554688 63.738281-63.738281zm-111.476562 0c0-26.367188 21.371093-47.742188 47.738281-47.742188s47.738281 21.375 47.738281 47.742188c0 26.367187-21.371093 47.738281-47.738281 47.738281-26.355469-.027344-47.710938-21.386719-47.738281-47.738281zm0 0"/></g></svg>