<svg height="64" viewBox="0 0 64 64" width="64" xmlns="http://www.w3.org/2000/svg"><g transform="matrix(1.7587249 0 0 1.6725095 -1.758725 41.023189)"><path d="m37.35-14a11.24 11.24 0 0 0 -.23-2.26 7.42 7.42 0 0 0 -2.16-4 6.83 6.83 0 0 0 -1.96-1.35 8 8 0 0 0 -2.24-.73c-.77-.15-1.62-.15-2.39-.22h-19.02a13.37 13.37 0 0 0 -1.77.15 6.41 6.41 0 0 0 -1.7.44c-.15.07-.39.15-.54.22a9.86 9.86 0 0 0 -1.47.95c-.15.15-.31.22-.46.36a6.47 6.47 0 0 0 -1.41 1.82 6.77 6.77 0 0 0 -.77 2.19 22.44 22.44 0 0 0 -.23 2.25v17.43a11.24 11.24 0 0 0 .23 2.26 7.42 7.42 0 0 0 2.16 4 6.83 6.83 0 0 0 1.93 1.31 8 8 0 0 0 2.24.73c.77.15 1.62.15 2.39.22h18.46a13.26 13.26 0 0 0 2.39-.22 8 8 0 0 0 2.2-.72 8.78 8.78 0 0 0 2-1.31 6.47 6.47 0 0 0 1.39-1.82 6.77 6.77 0 0 0 .77-2.19 22.44 22.44 0 0 0 .23-2.26v-17.25z" fill="#f05138"/><path d="m25.3 4c-3.24 1.77-7.69 1.95-12.16.14a18.77 18.77 0 0 1 -8.57-6.94 14.61 14.61 0 0 0 3.17 1.8c4.62 2 9.25 1.91 12.5 0a64.45 64.45 0 0 1 -11.5-11.28 12.56 12.56 0 0 1 -1.54-2 88.68 88.68 0 0 0 11.18 8 78.59 78.59 0 0 1 -7.87-9.33 77.67 77.67 0 0 0 13 10.06l.5.28a9.38 9.38 0 0 0 .35-1c1.08-3.72-.15-7.95-2.85-11.45 6.25 3.57 9.95 10.28 8.41 15.9 0 .15-.08.3-.13.45l.05.06c3.09 3.65 2.24 7.51 1.85 6.78-1.69-3.05-4.82-2.11-6.39-1.47z" fill="#fefefe"/></g></svg>